<?xml version="1.0" standalone="no"?>
<!DOCTYPE svg PUBLIC "-//W3C//DTD SVG 1.1//EN" "http://www.w3.org/Graphics/SVG/1.1/DTD/svg11.dtd">
<svg width="100%" height="100%" viewBox="0 0 250 130" version="1.1" xmlns="http://www.w3.org/2000/svg" xmlns:xlink="http://www.w3.org/1999/xlink" xml:space="preserve" style="fill-rule:evenodd;clip-rule:evenodd;stroke-linejoin:round;stroke-miterlimit:1.41421;">
    <g id="Layer1">
        <path d="M124.999,117.769L124.754,117.768L124.508,117.765L124.263,117.762L124.018,117.756L123.773,117.749L123.529,117.741L123.285,117.731L123.042,117.719L122.799,117.706L122.556,117.691L122.314,117.675L122.072,117.658L121.83,117.638L121.589,117.618L121.349,117.596L121.108,117.572L120.868,117.547L120.629,117.52L120.39,117.492L120.151,117.463L119.913,117.432L119.676,117.399L119.438,117.365L119.202,117.33L118.965,117.293L118.729,117.255L118.494,117.215L118.259,117.174L118.025,117.131L117.791,117.087L117.558,117.041L117.325,116.995L117.092,116.946L116.86,116.896L116.629,116.845L116.398,116.793L116.168,116.739L115.938,116.684L115.709,116.627L115.48,116.569L115.252,116.509L115.025,116.449L114.798,116.386L114.571,116.323L114.345,116.258L114.12,116.192L113.895,116.124L113.671,116.055L113.447,115.985L113.224,115.913L113.002,115.84L112.78,115.766L112.559,115.69L112.339,115.613L112.119,115.535L111.899,115.456L111.681,115.375L111.463,115.293L111.245,115.209L111.029,115.125L110.812,115.039L110.597,114.951L110.382,114.863L110.168,114.773L109.955,114.682L109.742,114.59L109.53,114.496L109.318,114.401L109.108,114.305L108.898,114.208L108.688,114.109L108.479,114.01L108.272,113.909L108.064,113.806L107.858,113.703L107.652,113.598L107.447,113.493L107.243,113.386L107.039,113.277L106.836,113.168L106.634,113.057L106.433,112.946L106.232,112.833L106.032,112.719L105.833,112.603L105.635,112.487L105.437,112.369L105.24,112.25L105.044,112.131L104.849,112.009L104.655,111.887L104.461,111.764L104.268,111.64L104.076,111.514L103.885,111.387L103.695,111.259L103.505,111.131L103.316,111.001L103.128,110.869L102.941,110.737L102.755,110.604L102.57,110.47L102.385,110.334L102.201,110.198L102.018,110.06L101.836,109.921L101.655,109.781L101.475,109.641L101.296,109.499L101.117,109.356L100.939,109.212L100.763,109.067L100.587,108.921L100.412,108.774L100.238,108.626L100.064,108.477L99.8921,108.326L99.7208,108.175L99.5503,108.023L99.3808,107.87L99.2122,107.716L99.0445,107.561L98.8777,107.405L98.712,107.247L98.5471,107.089L98.3832,106.93L98.2203,106.77L98.0582,106.609L97.8973,106.447L97.7372,106.284L97.578,106.12L97.42,105.955L97.2628,105.79L97.1067,105.623L96.9516,105.455L96.7974,105.287L96.6442,105.117L96.4921,104.947L96.3409,104.775L96.1908,104.603L96.0417,104.43L95.8936,104.256L95.7465,104.081L95.6004,103.905L95.4554,103.728L95.3115,103.55L95.1685,103.372L95.0267,103.193L94.8859,103.012L94.7461,102.831L94.6074,102.649L94.4698,102.466L94.3332,102.282L94.1978,102.098L94.0634,101.912L93.9301,101.726L93.7978,101.539L93.6668,101.351L93.5367,101.162L93.4078,100.973L93.28,100.782L93.1533,100.591L93.0277,100.399L92.9033,100.206L92.78,100.013L92.6578,99.8183L92.5367,99.623L92.4168,99.427L92.2981,99.2302L92.1805,99.0327L92.064,98.8344L91.9487,98.6353L91.8346,98.4354L91.7216,98.2348L91.6099,98.0334L91.4993,97.8313L91.3898,97.6284L91.2816,97.4248L91.1746,97.2205L91.0688,97.0155L90.9642,96.8097L90.8607,96.6031L90.7586,96.3959L90.6576,96.188L90.5578,95.9793L90.4593,95.77L90.362,95.5599L90.2659,95.3491L90.1711,95.1377L90.0776,94.9257L89.9852,94.7129L89.8942,94.4994L89.8044,94.2853L89.7158,94.0705L89.6286,93.855L89.5426,93.639L89.4579,93.4222L89.3745,93.2048L89.2923,92.9867L89.2115,92.768L89.132,92.5488L89.0538,92.3289L88.9768,92.1083L88.9012,91.8871L88.8269,91.6653L88.754,91.443L88.6824,91.22L88.6121,90.9964L88.5431,90.7723L88.4755,90.5475L88.4092,90.3222L88.3443,90.0963L88.2807,89.8699L88.2185,89.6428L88.1577,89.4152L88.0982,89.1871L88.0402,88.9584L87.9835,88.7292L87.9282,88.4994L87.8742,88.2691L87.8217,88.0382L87.7706,87.8069L87.7208,87.575L87.6725,87.3426L87.6256,87.1097L87.5801,86.8763L87.5361,86.6424L87.4935,86.408L87.4523,86.1732L87.4125,85.9378L87.3742,85.702L87.3373,85.4656L87.3019,85.2289L87.268,84.9917L87.2355,84.754L87.2044,84.5159L87.1749,84.2773L87.1468,84.0382L87.1202,83.7988L87.095,83.559L87.0714,83.3187L87.0493,83.078L87.0286,82.8368L87.0095,82.5953L86.9918,82.3534L86.9757,82.1111L86.9611,81.8684L86.948,81.6253L86.9364,81.3818L86.9264,81.138L86.9179,80.8938L86.9109,80.6492L86.9055,80.4043L86.9016,80.1591L86.8993,79.9135L86.8985,79.6675L86.8993,79.4216L86.9016,79.1759L86.9055,78.9307L86.9109,78.6858L86.9179,78.4412L86.9264,78.197L86.9364,77.9532L86.948,77.7097L86.9611,77.4666L86.9757,77.2239L86.9918,76.9816L87.0095,76.7397L87.0286,76.4982L87.0493,76.2571L87.0714,76.0163L87.095,75.776L87.1202,75.5362L87.1468,75.2968L87.1749,75.0577L87.2044,74.8191L87.2355,74.581L87.268,74.3433L87.3019,74.1061L87.3373,73.8694L87.3742,73.633L87.4125,73.3972L87.4523,73.1618L87.4935,72.927L87.5361,72.6926L87.5801,72.4587L87.6256,72.2253L87.6725,71.9924L87.7208,71.76L87.7706,71.5281L87.8217,71.2968L87.8742,71.0659L87.9282,70.8356L87.9835,70.6058L88.0402,70.3766L88.0982,70.1479L88.1577,69.9198L88.2185,69.6922L88.2807,69.4651L88.3443,69.2387L88.4092,69.0128L88.4755,68.7875L88.5431,68.5627L88.6121,68.3386L88.6824,68.115L88.754,67.892L88.8269,67.6697L88.9012,67.4479L88.9768,67.2267L89.0538,67.0061L89.132,66.7862L89.2115,66.567L89.2923,66.3483L89.3745,66.1302L89.4579,65.9128L89.5426,65.696L89.6286,65.48L89.7158,65.2645L89.8044,65.0497L89.8942,64.8356L89.9852,64.6222L90.0776,64.4093L90.1711,64.1973L90.2659,63.9859L90.362,63.7751L90.4593,63.565L90.5578,63.3557L90.6576,63.147L90.7586,62.9391L90.8607,62.7319L90.9642,62.5253L91.0688,62.3196L91.1746,62.1145L91.2816,61.9102L91.3898,61.7066L91.4993,61.5037L91.6099,61.3016L91.7216,61.1002L91.8346,60.8996L91.9487,60.6997L92.064,60.5006L92.1805,60.3023L92.2981,60.1047L92.4168,59.908L92.5367,59.712L92.6578,59.5167L92.78,59.3223L92.9033,59.1287L93.0277,58.9359L93.1533,58.7438L93.28,58.5526L93.4078,58.3622L93.5367,58.1726L93.6668,57.9838L93.7978,57.796L93.9301,57.6088L94.0634,57.4225L94.1977,57.2372L94.3332,57.0526L94.4698,56.8688L94.6074,56.6859L94.7461,56.5039L94.8859,56.3227L95.0267,56.1424L95.1685,55.9631L95.3115,55.7845L95.4554,55.6068L95.6004,55.4301L95.7465,55.2542L95.8936,55.0792L96.0416,54.9051L96.1908,54.7319L96.3409,54.5596L96.4921,54.3883L96.6442,54.2178L96.7973,54.0483L96.9516,53.8797L97.1067,53.712L97.2628,53.5453L97.42,53.3795L97.5781,53.2147L97.7372,53.0508L97.8972,52.8878L98.0583,52.7259L98.2203,52.5648L98.3832,52.4047L98.5471,52.2457L98.7119,52.0876L98.8777,51.9305L99.0445,51.7743L99.2122,51.6191L99.3808,51.465L99.5503,51.3118L99.7207,51.1597L99.8921,51.0085L100.064,50.8584L100.238,50.7093L100.412,50.5612L100.587,50.4141L100.763,50.2681L100.939,50.1231L101.117,49.9791L101.296,49.8362L101.475,49.6944L101.655,49.5535L101.836,49.4138L102.018,49.2751L102.201,49.1375L102.385,49.0009L102.57,48.8654L102.755,48.731L102.941,48.5977L103.128,48.4655L103.316,48.3344L103.505,48.2044L103.695,48.0755L103.885,47.9477L104.076,47.821L104.268,47.6954L104.461,47.571L104.655,47.4477L104.849,47.3255L105.044,47.2045L105.24,47.0846L105.437,46.9658L105.635,46.8482L105.833,46.7318L106.032,46.6165L106.232,46.5023L106.433,46.3894L106.634,46.2776L106.836,46.1671L107.039,46.0576L107.243,45.9494L107.447,45.8424L107.652,45.7366L107.858,45.632L108.064,45.5286L108.272,45.4264L108.48,45.3254L108.688,45.2256L108.897,45.1271L109.108,45.0298L109.318,44.9338L109.53,44.839L109.742,44.7454L109.955,44.6531L110.168,44.562L110.382,44.4722L110.597,44.3837L110.812,44.2964L111.029,44.2105L111.245,44.1258L111.463,44.0423L111.681,43.9602L111.899,43.8794L112.119,43.7999L112.339,43.7216L112.559,43.6447L112.78,43.5691L113.002,43.4949L113.224,43.4219L113.447,43.3503L113.671,43.28L113.895,43.211L114.12,43.1434L114.345,43.0771L114.571,43.0122L114.798,42.9487L115.025,42.8865L115.252,42.8256L115.48,42.7662L115.709,42.7081L115.938,42.6514L116.168,42.5961L116.398,42.5422L116.629,42.4896L116.86,42.4385L117.092,42.3888L117.325,42.3405L117.558,42.2936L117.791,42.2481L118.025,42.2041L118.259,42.1614L118.494,42.1202L118.729,42.0805L118.965,42.0422L119.202,42.0053L119.438,41.9699L119.676,41.9359L119.913,41.9034L120.151,41.8724L120.39,41.8428L120.629,41.8148L120.868,41.7882L121.108,41.763L121.348,41.7394L121.589,41.7172L121.83,41.6966L122.072,41.6775L122.314,41.6598L122.556,41.6437L122.799,41.6291L123.042,41.616L123.285,41.6044L123.529,41.5944L123.773,41.5859L124.018,41.5789L124.263,41.5735L124.508,41.5696L124.754,41.5673L124.988,41.5665L125.011,48.5665L124.798,48.5672L124.597,48.5691L124.396,48.5722L124.195,48.5767L123.995,48.5824L123.795,48.5894L123.595,48.5976L123.396,48.6071L123.197,48.6178L122.999,48.6297L122.801,48.6429L122.603,48.6573L122.405,48.673L122.208,48.6898L122.012,48.7079L121.815,48.7272L121.62,48.7478L121.424,48.7695L121.229,48.7924L121.034,48.8166L120.84,48.8419L120.646,48.8684L120.452,48.8961L120.259,48.925L120.066,48.9551L119.874,48.9864L119.682,49.0188L119.49,49.0524L119.299,49.0872L119.108,49.1231L118.918,49.1602L118.728,49.1984L118.539,49.2378L118.35,49.2783L118.161,49.32L117.973,49.3628L117.785,49.4068L117.598,49.4519L117.411,49.4981L117.224,49.5454L117.039,49.5939L116.853,49.6435L116.668,49.6942L116.483,49.7459L116.299,49.7988L116.116,49.8529L115.933,49.908L115.75,49.9641L115.568,50.0214L115.386,50.0798L115.205,50.1393L115.024,50.1998L114.844,50.2614L114.664,50.3241L114.485,50.3879L114.306,50.4527L114.128,50.5186L113.95,50.5855L113.773,50.6535L113.596,50.7225L113.42,50.7926L113.245,50.8637L113.069,50.9359L112.895,51.0091L112.721,51.0833L112.547,51.1586L112.374,51.2349L112.202,51.3122L112.03,51.3905L111.859,51.4698L111.688,51.5502L111.518,51.6315L111.349,51.7139L111.179,51.7972L111.011,51.8816L110.843,51.9669L110.676,52.0533L110.509,52.1406L110.343,52.2288L110.178,52.3181L110.013,52.4083L109.848,52.4995L109.685,52.5917L109.522,52.6848L109.359,52.7789L109.197,52.874L109.036,52.9699L108.875,53.0669L108.715,53.1647L108.556,53.2636L108.397,53.3633L108.239,53.464L108.082,53.5656L107.925,53.6681L107.769,53.7716L107.613,53.8759L107.459,53.9812L107.304,54.0874L107.151,54.1944L106.998,54.3024L106.846,54.4113L106.694,54.5211L106.544,54.6317L106.394,54.7433L106.244,54.8557L106.095,54.969L105.947,55.0832L105.8,55.1982L105.654,55.3142L105.508,55.4309L105.363,55.5486L105.218,55.6671L105.074,55.7864L104.931,55.9065L104.789,56.0276L104.648,56.1494L104.507,56.2721L104.367,56.3956L104.227,56.52L104.089,56.6452L103.951,56.7712L103.814,56.898L103.678,57.0255L103.542,57.154L103.408,57.2832L103.274,57.4133L103.14,57.5441L103.008,57.6756L102.876,57.8081L102.746,57.9412L102.616,58.0752L102.486,58.2099L102.358,58.3454L102.23,58.4817L102.103,58.6188L101.977,58.7565L101.852,58.8951L101.728,59.0344L101.604,59.1744L101.482,59.3152L101.36,59.4567L101.239,59.599L101.119,59.742L100.999,59.8857L100.881,60.0302L100.763,60.1753L100.646,60.3212L100.531,60.4678L100.415,60.6151L100.301,60.763L100.188,60.9118L100.076,61.0612L99.964,61.2112L99.8534,61.362L99.7435,61.5135L99.6347,61.6656L99.5267,61.8185L99.4196,61.972L99.3134,62.1261L99.2081,62.281L99.1037,62.4365L99.0003,62.5926L98.8978,62.7493L98.7962,62.9068L98.6955,63.0649L98.5958,63.2236L98.497,63.3829L98.3991,63.5429L98.3021,63.7035L98.2061,63.8648L98.1111,64.0267L98.017,64.1891L97.9239,64.3523L97.8317,64.516L97.7405,64.6803L97.6503,64.8452L97.561,65.0107L97.4727,65.1768L97.3854,65.3435L97.2991,65.5108L97.2137,65.6787L97.1294,65.8471L97.0461,66.0161L96.9637,66.1857L96.8823,66.3559L96.802,66.5266L96.7226,66.6979L96.6443,66.8697L96.567,67.0421L96.4907,67.215L96.4155,67.3885L96.3412,67.5625L96.268,67.7371L96.1959,67.9122L96.1247,68.0878L96.0546,68.264L95.9856,68.4406L95.9176,68.6178L95.8507,68.7955L95.7848,68.9737L95.7199,69.1525L95.6562,69.3318L95.5935,69.5115L95.5319,69.6917L95.4714,69.8724L95.4119,70.0537L95.3535,70.2354L95.2962,70.4176L95.24,70.6002L95.1849,70.7834L95.1309,70.9671L95.078,71.1511L95.0262,71.3357L94.9755,71.5207L94.9259,71.7062L94.8775,71.8922L94.8302,72.0786L94.7839,72.2654L94.7388,72.4527L94.6949,72.6404L94.6521,72.8286L94.6104,73.0173L94.5698,73.2063L94.5305,73.3957L94.4922,73.5857L94.4551,73.776L94.4192,73.9667L94.3844,74.1579L94.3508,74.3495L94.3184,74.5415L94.2871,74.7339L94.2571,74.9266L94.2282,75.1199L94.2004,75.3135L94.1739,75.5075L94.1486,75.7019L94.1244,75.8967L94.1015,76.0918L94.0798,76.2873L94.0593,76.4833L94.0399,76.6796L94.0218,76.8763L94.005,77.0733L93.9893,77.2708L93.9749,77.4686L93.9617,77.6667L93.9498,77.8652L93.9391,78.0641L93.9296,78.2633L93.9214,78.4629L93.9144,78.6628L93.9087,78.863L93.9043,79.0636L93.9011,79.2646L93.8992,79.4659L93.8985,79.6675L93.8992,79.8691L93.9011,80.0704L93.9043,80.2714L93.9087,80.472L93.9144,80.6722L93.9214,80.8721L93.9296,81.0717L93.9391,81.2709L93.9498,81.4698L93.9617,81.6683L93.9749,81.8664L93.9893,82.0642L94.005,82.2617L94.0218,82.4587L94.0399,82.6553L94.0593,82.8517L94.0798,83.0477L94.1015,83.2432L94.1244,83.4383L94.1486,83.6331L94.1739,83.8275L94.2004,84.0215L94.2282,84.2151L94.2571,84.4084L94.2871,84.6011L94.3184,84.7935L94.3508,84.9855L94.3844,85.1771L94.4192,85.3683L94.4551,85.559L94.4922,85.7493L94.5305,85.9392L94.5698,86.1287L94.6104,86.3178L94.6521,86.5064L94.6949,86.6946L94.7388,86.8823L94.7839,87.0696L94.8302,87.2564L94.8775,87.4428L94.9259,87.6288L94.9755,87.8143L95.0262,87.9993L95.078,88.1839L95.1309,88.3679L95.1849,88.5516L95.24,88.7348L95.2962,88.9174L95.3535,89.0996L95.4119,89.2813L95.4714,89.4626L95.5319,89.6433L95.5935,89.8235L95.6562,90.0032L95.7199,90.1825L95.7848,90.3613L95.8507,90.5395L95.9176,90.7172L95.9856,90.8944L96.0546,91.071L96.1247,91.2472L96.1959,91.4228L96.268,91.5979L96.3412,91.7725L96.4155,91.9465L96.4907,92.12L96.567,92.293L96.6443,92.4653L96.7226,92.6371L96.802,92.8084L96.8823,92.9791L96.9637,93.1493L97.0461,93.3189L97.1294,93.4879L97.2137,93.6563L97.2991,93.8242L97.3854,93.9915L97.4727,94.1582L97.561,94.3244L97.6503,94.4898L97.7405,94.6547L97.8317,94.819L97.9239,94.9827L98.017,95.1459L98.1111,95.3083L98.2061,95.4701L98.3021,95.6315L98.3991,95.7921L98.497,95.9521L98.5958,96.1114L98.6955,96.2701L98.7962,96.4282L98.8978,96.5857L99.0003,96.7424L99.1037,96.8985L99.2081,97.054L99.3134,97.2089L99.4196,97.363L99.5267,97.5166L99.6347,97.6694L99.7435,97.8215L99.8533,97.973L99.964,98.1237L100.076,98.2738L100.188,98.4232L100.301,98.572L100.415,98.7199L100.53,98.8672L100.646,99.0138L100.763,99.1597L100.881,99.3048L100.999,99.4493L101.119,99.593L101.239,99.736L101.36,99.8783L101.482,100.02L101.604,100.161L101.728,100.301L101.852,100.44L101.977,100.579L102.103,100.716L102.23,100.853L102.358,100.99L102.486,101.125L102.616,101.26L102.746,101.394L102.876,101.527L103.008,101.659L103.14,101.791L103.274,101.922L103.408,102.052L103.542,102.181L103.678,102.309L103.814,102.437L103.951,102.564L104.089,102.69L104.227,102.815L104.367,102.939L104.507,103.063L104.648,103.186L104.789,103.307L104.931,103.428L105.074,103.549L105.218,103.668L105.363,103.786L105.508,103.904L105.654,104.021L105.8,104.137L105.947,104.252L106.095,104.366L106.244,104.479L106.394,104.592L106.544,104.703L106.694,104.814L106.846,104.924L106.998,105.033L107.151,105.141L107.304,105.248L107.459,105.354L107.613,105.459L107.769,105.563L107.925,105.667L108.082,105.769L108.239,105.871L108.397,105.972L108.556,106.071L108.715,106.17L108.875,106.268L109.036,106.365L109.197,106.461L109.359,106.556L109.522,106.65L109.685,106.743L109.848,106.835L110.013,106.927L110.178,107.017L110.343,107.106L110.509,107.194L110.676,107.282L110.843,107.368L111.011,107.453L111.179,107.538L111.349,107.621L111.518,107.703L111.688,107.785L111.859,107.865L112.03,107.944L112.202,108.023L112.374,108.1L112.547,108.176L112.721,108.252L112.895,108.326L113.069,108.399L113.245,108.471L113.42,108.542L113.596,108.612L113.773,108.682L113.95,108.75L114.128,108.816L114.306,108.882L114.485,108.947L114.664,109.011L114.844,109.074L115.024,109.135L115.205,109.196L115.386,109.255L115.568,109.314L115.75,109.371L115.933,109.427L116.116,109.482L116.299,109.536L116.483,109.589L116.668,109.641L116.853,109.692L117.039,109.741L117.224,109.79L117.411,109.837L117.598,109.883L117.785,109.928L117.973,109.972L118.161,110.015L118.35,110.057L118.539,110.097L118.728,110.137L118.918,110.175L119.108,110.212L119.299,110.248L119.49,110.283L119.682,110.316L119.874,110.349L120.066,110.38L120.259,110.41L120.452,110.439L120.646,110.467L120.84,110.493L121.034,110.518L121.229,110.543L121.424,110.565L121.62,110.587L121.816,110.608L122.012,110.627L122.208,110.645L122.405,110.662L122.603,110.678L122.801,110.692L122.999,110.705L123.197,110.717L123.396,110.728L123.595,110.737L123.795,110.746L123.995,110.753L124.195,110.758L124.396,110.763L124.597,110.766L124.798,110.768L125,110.768L125.201,110.768L125.402,110.766L125.603,110.763L125.804,110.758L126.004,110.753L126.204,110.746L126.404,110.737L126.603,110.728L126.802,110.717L127,110.705L127.198,110.692L127.396,110.678L127.594,110.662L127.791,110.645L127.987,110.627L128.184,110.608L128.38,110.587L128.575,110.565L128.77,110.543L128.965,110.518L129.16,110.493L129.354,110.467L129.547,110.439L129.74,110.41L129.933,110.38L130.126,110.349L130.318,110.316L130.509,110.283L130.7,110.248L130.891,110.212L131.081,110.175L131.271,110.137L131.461,110.097L131.65,110.057L131.838,110.015L132.027,109.972L132.214,109.928L132.402,109.883L132.589,109.837L132.775,109.79L132.961,109.741L133.146,109.692L133.331,109.641L133.516,109.589L133.7,109.536L133.884,109.482L134.067,109.427L134.25,109.371L134.432,109.314L134.613,109.255L134.795,109.196L134.975,109.135L135.156,109.074L135.335,109.011L135.515,108.947L135.693,108.882L135.872,108.816L136.049,108.749L136.227,108.682L136.403,108.612L136.579,108.542L136.755,108.471L136.93,108.399L137.105,108.326L137.279,108.252L137.452,108.176L137.625,108.1L137.798,108.023L137.969,107.944L138.141,107.865L138.311,107.785L138.482,107.703L138.651,107.621L138.82,107.538L138.989,107.453L139.156,107.368L139.324,107.282L139.491,107.194L139.657,107.106L139.822,107.017L139.987,106.927L140.151,106.835L140.315,106.743L140.478,106.65L140.641,106.556L140.803,106.461L140.964,106.365L141.124,106.268L141.284,106.17L141.444,106.071L141.603,105.972L141.761,105.871L141.918,105.769L142.075,105.667L142.231,105.563L142.386,105.459L142.541,105.354L142.695,105.248L142.849,105.141L143.002,105.033L143.154,104.924L143.305,104.814L143.456,104.703L143.606,104.592L143.756,104.479L143.904,104.366L144.052,104.252L144.2,104.137L144.346,104.021L144.492,103.904L144.637,103.786L144.782,103.668L144.926,103.549L145.069,103.428L145.211,103.307L145.352,103.186L145.493,103.063L145.633,102.939L145.772,102.815L145.911,102.69L146.049,102.564L146.186,102.437L146.322,102.309L146.458,102.181L146.592,102.052L146.726,101.922L146.86,101.791L146.992,101.659L147.124,101.527L147.254,101.394L147.384,101.26L147.514,101.125L147.642,100.99L147.77,100.853L147.897,100.716L148.022,100.578L148.148,100.44L148.272,100.301L148.396,100.161L148.518,100.02L148.64,99.8782L148.761,99.736L148.881,99.593L149.001,99.4493L149.119,99.3048L149.237,99.1597L149.354,99.0138L149.469,98.8672L149.584,98.7199L149.699,98.5718L149.812,98.4232L149.924,98.2738L150.036,98.1237L150.147,97.9729L150.256,97.8215L150.365,97.6694L150.473,97.5165L150.58,97.363L150.687,97.2088L150.792,97.054L150.896,96.8986L151,96.7424L151.102,96.5856L151.204,96.4282L151.304,96.2702L151.404,96.1114L151.503,95.952L151.601,95.7921L151.698,95.6314L151.794,95.4701L151.889,95.3083L151.983,95.1459L152.076,94.9827L152.168,94.819L152.259,94.6547L152.35,94.4898L152.439,94.3243L152.527,94.1582L152.615,93.9915L152.701,93.8242L152.786,93.6563L152.871,93.4879L152.954,93.3188L153.036,93.1493L153.118,92.9791L153.198,92.8084L153.277,92.6372L153.356,92.4653L153.433,92.2929L153.509,92.12L153.585,91.9465L153.659,91.7725L153.732,91.5979L153.804,91.4228L153.875,91.2472L153.945,91.071L154.014,90.8944L154.082,90.7171L154.149,90.5394L154.215,90.3613L154.28,90.1824L154.344,90.0032L154.406,89.8236L154.468,89.6432L154.529,89.4625L154.588,89.2813L154.646,89.0996L154.704,88.9174L154.76,88.7347L154.815,88.5516L154.869,88.3679L154.922,88.1839L154.974,87.9993L155.024,87.8143L155.074,87.6287L155.123,87.4428L155.17,87.2564L155.216,87.0695L155.261,86.8823L155.305,86.6946L155.348,86.5064L155.39,86.3178L155.43,86.1287L155.47,85.9392L155.508,85.7493L155.545,85.5589L155.581,85.3683L155.616,85.1771L155.649,84.9856L155.682,84.7935L155.713,84.6012L155.743,84.4083L155.772,84.2151L155.8,84.0215L155.826,83.8275L155.851,83.6332L155.876,83.4383L155.898,83.2431L155.92,83.0476L155.941,82.8517L155.96,82.6554L155.978,82.4586L155.995,82.2617L156.011,82.0642L156.025,81.8664L156.038,81.6683L156.05,81.4698L156.061,81.2709L156.07,81.0718L156.079,80.8721L156.086,80.6721L156.091,80.472L156.096,80.2713L156.099,80.0703L156.101,79.8692L156.101,79.6662L156.101,79.5115L156.1,79.3556L156.098,79.1999L156.095,79.0446L156.092,78.8893L156.088,78.7341L156.083,78.5795L156.077,78.4249L156.071,78.2703L156.064,78.1162L156.056,77.9622L156.047,77.8084L156.038,77.6548L156.027,77.5015L156.016,77.3484L156.005,77.1955L155.992,77.0427L155.979,76.8903L155.966,76.7381L155.951,76.5861L155.936,76.4342L155.92,76.2825L155.903,76.1313L155.886,75.9802L155.867,75.8292L155.848,75.6785L155.829,75.5281L155.808,75.378L155.787,75.2281L155.766,75.0784L155.743,74.9288L155.72,74.7796L155.696,74.6306L155.672,74.4818L155.646,74.3334L155.62,74.1851L155.594,74.037L155.566,73.8893L155.538,73.7418L155.509,73.5944L155.48,73.4474L155.45,73.3007L155.419,73.1542L155.388,73.0081L155.355,72.862L155.322,72.7162L155.289,72.5709L155.255,72.4257L155.22,72.2807L155.184,72.136L155.148,71.9918L155.111,71.8475L155.073,71.7036L155.035,71.5602L154.996,71.4168L154.956,71.2738L154.916,71.1312L154.875,70.9886L154.834,70.8463L154.791,70.7045L154.748,70.5629L154.705,70.4216L154.661,70.2806L154.616,70.1397L154.57,69.9992L154.524,69.8592L154.477,69.7193L154.43,69.5796L154.382,69.4404L154.333,69.3014L154.284,69.1627L154.234,69.0242L154.183,68.8862L154.132,68.7485L154.08,68.6111L154.027,68.4738L153.974,68.3369L153.92,68.2005L153.866,68.0643L153.811,67.9283L153.755,67.7927L153.699,67.6574L153.642,67.5226L153.584,67.388L153.526,67.2537L153.467,67.1196L153.408,66.9859L153.348,66.8527L153.287,66.7197L153.226,66.587L153.164,66.4548L153.102,66.3228L153.039,66.191L152.975,66.0598L152.911,65.9289L152.846,65.7982L152.781,65.6679L152.715,65.538L152.648,65.4084L152.581,65.2792L152.513,65.1503L152.445,65.0218L152.376,64.8936L152.306,64.7657L152.236,64.6384L152.165,64.5113L152.094,64.3845L152.022,64.2582L151.95,64.1322L151.877,64.0066L151.803,63.8814L151.729,63.7564L151.655,63.6319L151.579,63.5077L151.503,63.384L151.427,63.2606L151.35,63.1376L151.273,63.015L151.195,62.8928L151.116,62.7709L151.037,62.6494L150.959,62.5317L150.796,62.2874L150.633,62.048L150.467,61.8102L150.3,61.5741L150.13,61.3395L149.958,61.1066L149.784,60.8753L149.608,60.6457L149.43,60.4178L149.25,60.1916L149.067,59.9671L148.883,59.7443L148.697,59.5233L148.508,59.304L148.318,59.0865L148.126,58.8708L147.931,58.6568L147.735,58.4447L147.537,58.2345L147.337,58.0261L147.135,57.8195L146.931,57.6148L146.725,57.412L146.517,57.2111L146.308,57.0122L146.096,56.8151L145.883,56.62L145.668,56.4269L145.451,56.2357L145.233,56.0465L145.012,55.8594L144.79,55.6743L144.567,55.4911L144.341,55.3101L144.114,55.1311L143.885,54.9542L143.654,54.7794L143.422,54.6066L143.188,54.436L142.953,54.2676L142.715,54.1013L142.477,53.9371L142.233,53.7729L142.116,53.695L141.995,53.6154L141.873,53.5363L141.751,53.4578L141.629,53.3799L141.506,53.3025L141.383,53.2256L141.26,53.1493L141.136,53.0737L141.012,52.9985L140.887,52.9239L140.762,52.8499L140.637,52.7765L140.511,52.7036L140.385,52.6312L140.258,52.5595L140.132,52.4884L140.004,52.4178L139.877,52.3478L139.749,52.2784L139.621,52.2096L139.492,52.1414L139.363,52.0737L139.234,52.0066L139.104,51.9401L138.974,51.8742L138.844,51.809L138.713,51.7442L138.582,51.6801L138.451,51.6166L138.319,51.5537L138.187,51.4914L138.055,51.4297L137.922,51.3686L137.789,51.3081L137.656,51.2483L137.522,51.189L137.388,51.1304L137.254,51.0723L137.119,51.0149L136.984,50.9581L136.849,50.9019L136.713,50.8463L136.577,50.7914L136.441,50.7371L136.304,50.6834L136.167,50.6303L136.022,50.5749L138.521,44.0361L138.681,44.0974L138.849,44.1625L139.017,44.2284L139.184,44.295L139.351,44.3624L139.517,44.4306L139.683,44.4995L139.849,44.5692L140.014,44.6396L140.179,44.7108L140.343,44.7828L140.507,44.8555L140.671,44.9289L140.834,45.0031L140.997,45.078L141.159,45.1537L141.321,45.2301L141.483,45.3072L141.644,45.3851L141.804,45.4636L141.965,45.5429L142.124,45.623L142.284,45.7038L142.443,45.7853L142.601,45.8675L142.759,45.9504L142.917,46.0341L143.074,46.1185L143.231,46.2035L143.387,46.2893L143.543,46.3758L143.698,46.463L143.853,46.5509L144.008,46.6395L144.162,46.7288L144.315,46.8188L144.468,46.9095L144.621,47.0008L144.773,47.0929L144.925,47.1857L145.076,47.2791L145.227,47.3733L145.377,47.468L145.527,47.5635L145.676,47.6597L145.825,47.7565L145.974,47.854L146.125,47.9544L146.416,48.1505L146.708,48.3515L146.998,48.5551L147.287,48.7614L147.573,48.9702L147.857,49.1816L148.14,49.3956L148.42,49.6121L148.698,49.8312L148.974,50.0528L149.248,50.2769L149.52,50.5035L149.789,50.7325L150.057,50.964L150.322,51.1979L150.585,51.4342L150.846,51.6729L151.105,51.914L151.361,52.1575L151.615,52.4033L151.867,52.6514L152.116,52.9018L152.364,53.1545L152.608,53.4096L152.851,53.6669L153.091,53.9264L153.329,54.1881L153.564,54.452L153.797,54.7182L154.028,54.9865L154.256,55.257L154.481,55.5296L154.704,55.8044L154.925,56.0812L155.143,56.3602L155.358,56.6412L155.571,56.9243L155.782,57.2094L155.99,57.4966L156.195,57.7858L156.397,58.0769L156.597,58.37L156.792,58.6618L156.892,58.8135L156.989,58.9622L157.085,59.1114L157.181,59.2611L157.276,59.4114L157.37,59.5621L157.464,59.7132L157.557,59.8648L157.649,60.0169L157.74,60.1695L157.831,60.3224L157.921,60.4759L158.011,60.6298L158.1,60.7842L158.188,60.9392L158.275,61.0944L158.361,61.2501L158.447,61.4064L158.533,61.563L158.617,61.7201L158.701,61.8776L158.784,62.0355L158.866,62.194L158.948,62.3528L159.029,62.5122L159.109,62.6719L159.189,62.8319L159.267,62.9926L159.345,63.1536L159.423,63.315L159.499,63.4768L159.575,63.6392L159.65,63.8017L159.724,63.9649L159.798,64.1285L159.871,64.2923L159.943,64.4565L160.014,64.6212L160.085,64.7864L160.155,64.952L160.224,65.118L160.292,65.2842L160.36,65.4509L160.426,65.618L160.492,65.7856L160.558,65.9535L160.622,66.1217L160.686,66.2903L160.749,66.4594L160.811,66.6289L160.872,66.7986L160.933,66.9688L160.993,67.1393L161.052,67.3103L161.11,67.4814L161.167,67.653L161.224,67.8252L161.28,67.9976L161.335,68.1702L161.389,68.3433L161.443,68.5167L161.495,68.6905L161.547,68.8647L161.598,69.0391L161.649,69.2138L161.698,69.3891L161.747,69.5646L161.794,69.7403L161.841,69.9166L161.887,70.0931L161.933,70.2698L161.977,70.4471L162.021,70.6245L162.064,70.8023L162.106,70.9804L162.147,71.1589L162.187,71.3376L162.227,71.5166L162.266,71.6961L162.303,71.8758L162.34,72.0558L162.376,72.2361L162.412,72.4165L162.446,72.5975L162.48,72.7787L162.512,72.9602L162.544,73.1419L162.575,73.324L162.605,73.5064L162.635,73.689L162.663,73.8719L162.691,74.055L162.717,74.2385L162.743,74.4223L162.768,74.6063L162.792,74.7906L162.815,74.9751L162.837,75.1598L162.859,75.3449L162.879,75.5304L162.899,75.7159L162.917,75.9016L162.935,76.0877L162.952,76.2741L162.968,76.4608L162.983,76.6475L162.998,76.8345L163.011,77.0218L163.023,77.2094L163.035,77.3972L163.045,77.5851L163.055,77.7734L163.064,77.9618L163.072,78.1504L163.079,78.3393L163.085,78.5286L163.09,78.7177L163.094,78.9072L163.097,79.0971L163.1,79.287L163.101,79.4771L163.102,79.6688L163.101,79.9134L163.098,80.1591L163.095,80.4043L163.089,80.6492L163.082,80.8938L163.074,81.138L163.064,81.3818L163.052,81.6253L163.039,81.8683L163.024,82.1111L163.008,82.3534L162.991,82.5953L162.971,82.8368L162.951,83.078L162.929,83.3186L162.905,83.5589L162.88,83.7988L162.853,84.0383L162.825,84.2773L162.796,84.5158L162.765,84.754L162.732,84.9917L162.698,85.2289L162.663,85.4657L162.626,85.7019L162.587,85.9378L162.548,86.1731L162.507,86.408L162.464,86.6424L162.42,86.8764L162.374,87.1097L162.327,87.3426L162.279,87.575L162.229,87.8068L162.178,88.0382L162.126,88.2691L162.072,88.4994L162.017,88.7292L161.96,88.9584L161.902,89.1871L161.842,89.4153L161.781,89.6428L161.719,89.8698L161.656,90.0963L161.591,90.3222L161.525,90.5475L161.457,90.7723L161.388,90.9964L161.318,91.22L161.246,91.443L161.173,91.6654L161.099,91.8872L161.023,92.1082L160.946,92.3289L160.868,92.5488L160.788,92.768L160.708,92.9868L160.625,93.2048L160.542,93.4221L160.457,93.6389L160.371,93.855L160.284,94.0705L160.196,94.2853L160.106,94.4994L160.015,94.7129L159.922,94.9257L159.829,95.1378L159.734,95.3491L159.638,95.5599L159.541,95.77L159.442,95.9793L159.342,96.188L159.241,96.396L159.139,96.6032L159.036,96.8097L158.931,97.0154L158.825,97.2205L158.718,97.4248L158.61,97.6284L158.501,97.8313L158.39,98.0334L158.278,98.2348L158.165,98.4354L158.051,98.6353L157.936,98.8344L157.819,99.0328L157.702,99.2303L157.583,99.427L157.463,99.6231L157.342,99.8183L157.22,100.013L157.097,100.206L156.972,100.399L156.847,100.591L156.72,100.782L156.592,100.973L156.463,101.162L156.333,101.351L156.202,101.539L156.07,101.726L155.937,101.912L155.802,102.098L155.667,102.282L155.53,102.466L155.392,102.649L155.254,102.831L155.114,103.012L154.973,103.193L154.831,103.372L154.688,103.55L154.544,103.728L154.399,103.905L154.253,104.081L154.106,104.256L153.958,104.43L153.809,104.603L153.659,104.775L153.508,104.947L153.356,105.117L153.203,105.287L153.048,105.455L152.893,105.623L152.737,105.79L152.58,105.955L152.422,106.12L152.263,106.284L152.103,106.447L151.942,106.609L151.78,106.77L151.617,106.93L151.453,107.089L151.288,107.247L151.122,107.405L150.955,107.561L150.788,107.716L150.619,107.87L150.45,108.023L150.279,108.175L150.108,108.327L149.935,108.477L149.762,108.626L149.588,108.774L149.413,108.921L149.237,109.067L149.06,109.212L148.883,109.356L148.704,109.499L148.525,109.641L148.345,109.782L148.163,109.921L147.981,110.06L147.798,110.198L147.615,110.334L147.43,110.47L147.245,110.604L147.058,110.737L146.871,110.869L146.683,111.001L146.495,111.131L146.305,111.26L146.115,111.387L145.923,111.514L145.731,111.64L145.539,111.764L145.345,111.887L145.15,112.01L144.955,112.131L144.759,112.25L144.562,112.369L144.365,112.487L144.167,112.603L143.967,112.719L143.768,112.833L143.567,112.946L143.366,113.057L143.164,113.168L142.961,113.277L142.757,113.386L142.553,113.493L142.348,113.598L142.142,113.703L141.935,113.806L141.728,113.909L141.52,114.01L141.311,114.109L141.102,114.208L140.892,114.305L140.681,114.401L140.47,114.496L140.258,114.59L140.045,114.682L139.831,114.773L139.617,114.863L139.403,114.951L139.187,115.039L138.971,115.125L138.754,115.209L138.537,115.293L138.319,115.375L138.1,115.456L137.881,115.535L137.661,115.613L137.44,115.69L137.219,115.766L136.997,115.84L136.775,115.913L136.552,115.985L136.328,116.055L136.104,116.124L135.88,116.192L135.654,116.258L135.428,116.323L135.202,116.386L134.975,116.449L134.747,116.509L134.519,116.569L134.29,116.627L134.061,116.684L133.831,116.739L133.601,116.793L133.37,116.845L133.139,116.896L132.907,116.946L132.675,116.995L132.442,117.041L132.208,117.087L131.974,117.131L131.74,117.174L131.505,117.215L131.27,117.255L131.034,117.293L130.798,117.33L130.561,117.365L130.324,117.399L130.086,117.432L129.848,117.463L129.609,117.492L129.37,117.52L129.131,117.547L128.891,117.572L128.651,117.596L128.41,117.618L128.169,117.638L127.927,117.658L127.685,117.675L127.443,117.691L127.2,117.706L126.957,117.719L126.714,117.731L126.47,117.741L126.226,117.749L125.981,117.756L125.736,117.762L125.491,117.765L125.245,117.768L124.999,117.769Z" style="fill:rgb(22,118,188);"/>
        <rect x="87.759" y="41.3546" width="37.241" height="7" style="fill:rgb(0,174,239);"/>
        <path d="M53.1437,117.748L52.9142,117.747L52.6852,117.745L52.4568,117.742L52.2286,117.737L52.0006,117.731L51.7731,117.723L51.5458,117.715L51.3187,117.705L51.0921,117.693L50.8657,117.681L50.6398,117.667L50.4141,117.651L50.1887,117.635L49.9638,117.617L49.7392,117.597L49.515,117.577L49.2911,117.555L49.0675,117.532L48.8444,117.508L48.6216,117.482L48.3991,117.455L48.1771,117.427L47.9555,117.397L47.7342,117.366L47.5134,117.334L47.2929,117.301L47.0728,117.266L46.8533,117.231L46.634,117.193L46.4151,117.155L46.1967,117.116L45.9788,117.075L45.7613,117.033L45.5441,116.989L45.3275,116.945L45.1112,116.899L44.8955,116.852L44.6802,116.804L44.4653,116.755L44.2508,116.704L44.0369,116.652L43.8235,116.599L43.6104,116.545L43.3979,116.49L43.1859,116.433L42.9742,116.375L42.7632,116.316L42.5527,116.256L42.3425,116.195L42.1329,116.132L41.9239,116.069L41.7153,116.004L41.5073,115.938L41.2997,115.871L41.0926,115.802L40.8862,115.733L40.6803,115.663L40.4748,115.591L40.2699,115.518L40.0655,115.444L39.8617,115.369L39.6585,115.293L39.4558,115.215L39.2537,115.137L39.0521,115.057L38.851,114.977L38.6506,114.895L38.4507,114.812L38.2514,114.728L38.0527,114.643L37.8546,114.557L37.657,114.469L37.4601,114.381L37.2638,114.292L37.0679,114.201L36.8728,114.11L36.6783,114.017L36.4843,113.923L36.2911,113.829L36.0983,113.733L35.9062,113.636L35.7148,113.538L35.524,113.439L35.3338,113.339L35.1442,113.238L34.9553,113.136L34.7671,113.033L34.5795,112.929L34.3925,112.824L34.2062,112.718L34.0206,112.61L33.8356,112.502L33.6513,112.393L33.4677,112.283L33.2847,112.172L33.1024,112.06L32.9209,111.946L32.74,111.832L32.5597,111.717L32.3802,111.601L32.2014,111.484L32.0233,111.366L31.8459,111.247L31.6692,111.127L31.4932,111.006L31.3179,110.884L31.1433,110.761L30.9695,110.638L30.7964,110.513L30.624,110.387L30.4524,110.261L30.2815,110.133L30.1113,110.005L29.9419,109.875L29.7732,109.745L29.6053,109.614L29.4382,109.481L29.2718,109.348L29.1061,109.214L28.9412,109.08L28.7772,108.944L28.6139,108.807L28.4513,108.67L28.2896,108.531L28.1286,108.392L27.9684,108.252L27.809,108.111L27.6504,107.969L27.4927,107.826L27.3357,107.682L27.1795,107.537L27.0241,107.392L26.8696,107.246L26.7159,107.099L26.5629,106.951L26.4108,106.802L26.2596,106.652L26.1092,106.502L25.9596,106.35L25.8109,106.198L25.6629,106.045L25.5159,105.891L25.3697,105.737L25.2244,105.581L25.0799,105.425L24.9363,105.268L24.7935,105.11L24.6516,104.952L24.5106,104.792L24.3705,104.632L24.2312,104.471L24.0929,104.309L23.9554,104.146L23.8188,103.983L23.6831,103.819L23.5483,103.654L23.4144,103.488L23.2815,103.322L23.1494,103.155L23.0183,102.987L22.888,102.818L22.7587,102.648L22.6303,102.478L22.5029,102.307L22.3764,102.135L22.2508,101.963L22.1261,101.79L22.0024,101.616L21.8797,101.441L21.7579,101.266L21.637,101.09L21.5171,100.913L21.3982,100.736L21.2803,100.558L21.1633,100.379L21.0473,100.199L20.9323,100.019L20.8182,99.8378L20.7051,99.6561L20.5931,99.4738L20.482,99.2908L20.3719,99.1071L20.2629,98.9227L20.1548,98.7377L20.0477,98.552L19.9417,98.3656L19.8366,98.1786L19.7326,97.991L19.6296,97.8027L19.5277,97.6137L19.4268,97.4241L19.3269,97.2339L19.228,97.043L19.1302,96.8515L19.0334,96.6593L18.9377,96.4666L18.8431,96.2732L18.7495,96.0792L18.6569,95.8846L18.5655,95.6894L18.4751,95.4936L18.3858,95.2972L18.2975,95.1002L18.2103,94.9026L18.1243,94.7044L18.0393,94.5057L17.9554,94.3063L17.8726,94.1064L17.7909,93.9059L17.7103,93.7048L17.6308,93.5032L17.5525,93.301L17.4752,93.0982L17.3991,92.8949L17.3241,92.6911L17.2502,92.4867L17.1775,92.2817L17.1059,92.0762L17.0354,91.8702L16.9661,91.6637L16.8979,91.4566L16.8309,91.249L16.765,91.0409L16.7003,90.8323L16.6368,90.6232L16.5744,90.4136L16.5132,90.2034L16.4532,89.9928L16.3943,89.7817L16.3367,89.5701L16.2802,89.358L16.2249,89.1454L16.1708,88.9324L16.1179,88.7189L16.0662,88.5049L16.0157,88.2904L15.9664,88.0755L15.9184,87.8601L15.8715,87.6443L15.8259,87.428L15.7815,87.2113L15.7383,86.9942L15.6964,86.7766L15.6556,86.5586L15.6162,86.3401L15.578,86.1213L15.541,85.902L15.5053,85.6823L15.4708,85.4623L15.4376,85.2418L15.4056,85.0209L15.3749,84.7996L15.3455,84.5779L15.3174,84.3558L15.2905,84.1334L15.2661,83.9207L22.2205,83.1225L22.2425,83.3146L22.2645,83.4963L22.2874,83.6776L22.3114,83.8586L22.3365,84.0392L22.3626,84.2195L22.3897,84.3994L22.4178,84.579L22.4469,84.7583L22.4771,84.9372L22.5083,85.1157L22.5405,85.2939L22.5737,85.4717L22.6079,85.6491L22.6431,85.8262L22.6793,86.0029L22.7165,86.1793L22.7547,86.3552L22.7939,86.5308L22.8341,86.706L22.8752,86.8808L22.9174,87.0553L22.9605,87.2293L23.0046,87.403L23.0497,87.5763L23.0957,87.7491L23.1427,87.9216L23.1907,88.0937L23.2396,88.2654L23.2895,88.4366L23.3403,88.6075L23.3921,88.7779L23.4448,88.9479L23.4985,89.1176L23.5531,89.2867L23.6087,89.4555L23.6652,89.6238L23.7226,89.7917L23.781,89.9592L23.8403,90.1263L23.9005,90.2929L23.9616,90.459L24.0237,90.6247L24.0867,90.79L24.1505,90.9548L24.2153,91.1192L24.281,91.2831L24.3476,91.4466L24.4151,91.6096L24.4835,91.7721L24.5528,91.9342L24.623,92.0958L24.6941,92.2569L24.766,92.4175L24.8389,92.5777L24.9126,92.7374L24.9872,92.8966L25.0626,93.0553L25.139,93.2135L25.2162,93.3712L25.2943,93.5285L25.3732,93.6852L25.453,93.8414L25.5336,93.9971L25.6151,94.1523L25.6975,94.307L25.7807,94.4612L25.8647,94.6149L25.9496,94.768L26.0353,94.9206L26.1218,95.0727L26.2092,95.2243L26.2974,95.3753L26.3865,95.5258L26.4763,95.6757L26.567,95.8251L26.6585,95.974L26.7508,96.1223L26.8439,96.27L26.9378,96.4172L27.0325,96.5639L27.1281,96.7099L27.2244,96.8554L27.3215,97.0004L27.4194,97.1448L27.5181,97.2885L27.6176,97.4317L27.7178,97.5744L27.8189,97.7164L27.9207,97.8579L28.0233,97.9987L28.1266,98.139L28.2308,98.2787L28.3357,98.4177L28.4413,98.5562L28.5477,98.6941L28.6549,98.8313L28.7628,98.968L28.8715,99.104L28.9808,99.2394L29.091,99.3742L29.2019,99.5083L29.3135,99.6418L29.4259,99.7747L29.539,99.907L29.6528,100.039L29.7673,100.17L29.8825,100.3L29.9985,100.43L30.1152,100.559L30.2325,100.687L30.3506,100.815L30.4694,100.942L30.589,101.068L30.7092,101.194L30.83,101.319L30.9516,101.443L31.0739,101.567L31.1968,101.69L31.3205,101.812L31.4448,101.934L31.5697,102.055L31.6954,102.175L31.8217,102.295L31.9487,102.414L32.0764,102.532L32.2047,102.649L32.3337,102.766L32.4633,102.882L32.5935,102.997L32.7244,103.112L32.856,103.226L32.9882,103.339L33.121,103.451L33.2545,103.563L33.3886,103.674L33.5233,103.784L33.6587,103.894L33.7946,104.002L33.9312,104.11L34.0685,104.218L34.2062,104.324L34.3446,104.43L34.4837,104.535L34.6233,104.639L34.7635,104.742L34.9043,104.845L35.0457,104.947L35.1877,105.048L35.3303,105.148L35.4734,105.248L35.6172,105.347L35.7615,105.445L35.9064,105.542L36.0519,105.638L36.1979,105.734L36.3445,105.829L36.4916,105.922L36.6393,106.016L36.7876,106.108L36.9364,106.2L37.0857,106.29L37.2356,106.38L37.386,106.469L37.537,106.558L37.6886,106.645L37.8406,106.732L37.9932,106.818L38.1463,106.902L38.2999,106.987L38.454,107.07L38.6086,107.152L38.7638,107.234L38.9195,107.315L39.0757,107.394L39.2323,107.473L39.3895,107.552L39.5472,107.629L39.7054,107.705L39.8641,107.781L40.0233,107.856L40.1828,107.929L40.343,108.002L40.5036,108.074L40.6647,108.145L40.8262,108.216L40.9883,108.285L41.1508,108.354L41.3137,108.421L41.4771,108.488L41.641,108.554L41.8053,108.618L41.9701,108.682L42.1353,108.745L42.3011,108.808L42.4672,108.869L42.6337,108.929L42.8007,108.988L42.9681,109.047L43.136,109.104L43.3044,109.161L43.4731,109.217L43.6422,109.271L43.8118,109.325L43.9817,109.378L44.1522,109.43L44.323,109.481L44.4942,109.531L44.6658,109.58L44.8379,109.628L45.0103,109.675L45.1831,109.721L45.3564,109.766L45.53,109.81L45.704,109.854L45.8785,109.896L46.0532,109.937L46.2284,109.977L46.4039,110.017L46.5799,110.055L46.7562,110.092L46.9329,110.128L47.1099,110.164L47.2873,110.198L47.4651,110.231L47.6433,110.264L47.8217,110.295L48.0005,110.325L48.1798,110.354L48.3594,110.383L48.5393,110.41L48.7195,110.436L48.9001,110.461L49.0811,110.485L49.2625,110.508L49.444,110.53L49.6259,110.551L49.8082,110.571L49.9908,110.59L50.1738,110.608L50.357,110.625L50.5406,110.64L50.7246,110.655L50.9088,110.669L51.0933,110.681L51.2782,110.693L51.4633,110.703L51.6488,110.712L51.8344,110.721L52.0206,110.728L52.207,110.734L52.3936,110.739L52.5807,110.743L52.768,110.745L52.9554,110.747L53.1429,110.748L53.345,110.747L53.5463,110.745L53.7474,110.742L53.9481,110.737L54.1485,110.732L54.3485,110.725L54.5482,110.716L54.7475,110.707L54.9464,110.696L55.145,110.684L55.3432,110.671L55.5412,110.657L55.7387,110.641L55.9358,110.624L56.1325,110.606L56.329,110.587L56.5251,110.566L56.7207,110.545L56.9158,110.522L57.1108,110.497L57.3054,110.472L57.4994,110.446L57.693,110.418L57.8864,110.389L58.0793,110.359L58.2717,110.328L58.4639,110.295L58.6555,110.261L58.8467,110.227L59.0375,110.191L59.2281,110.154L59.418,110.115L59.6075,110.076L59.7967,110.035L59.9855,109.994L60.1737,109.951L60.3615,109.907L60.5489,109.862L60.7359,109.816L60.9223,109.768L61.1083,109.72L61.2939,109.67L61.4791,109.619L61.6637,109.568L61.8479,109.515L62.0316,109.461L62.2148,109.405L62.3976,109.349L62.5799,109.292L62.7617,109.234L62.943,109.174L63.1238,109.113L63.3041,109.052L63.4839,108.989L63.6633,108.925L63.8421,108.86L64.0204,108.795L64.1982,108.728L64.3755,108.66L64.5522,108.591L64.7285,108.52L64.9042,108.449L65.0794,108.377L65.2541,108.304L65.4281,108.23L65.6016,108.154L65.7747,108.078L65.9472,108.001L66.1192,107.922L66.2905,107.843L66.4613,107.762L66.6315,107.681L66.8012,107.599L66.9703,107.515L67.1388,107.431L67.3067,107.346L67.4742,107.259L67.6409,107.172L67.8071,107.083L67.9727,106.994L68.1377,106.904L68.3021,106.813L68.4658,106.72L68.629,106.627L68.7916,106.533L68.9535,106.438L69.1149,106.342L69.2755,106.245L69.4356,106.147L69.5951,106.048L69.7539,105.948L69.912,105.848L70.0695,105.746L70.2264,105.643L70.3826,105.54L70.5382,105.436L70.693,105.33L70.8473,105.224L71.0008,105.117L71.1538,105.009L71.306,104.9L71.4575,104.79L71.6083,104.679L71.7585,104.568L71.908,104.455L72.0567,104.342L72.2048,104.228L72.3522,104.113L72.4988,103.997L72.6448,103.88L72.7901,103.762L72.9346,103.644L73.0783,103.524L73.2214,103.404L73.3638,103.283L73.5053,103.161L73.6462,103.038L73.7863,102.915L73.9256,102.79L74.0643,102.665L74.2022,102.539L74.3392,102.412L74.4756,102.284L74.6112,102.156L74.746,102.027L74.88,101.897L75.0132,101.766L75.1457,101.634L75.2774,101.501L75.4082,101.368L75.5383,101.234L75.6676,101.099L75.7961,100.964L75.9237,100.828L76.0506,100.69L76.1767,100.553L76.3019,100.414L76.4263,100.275L76.5499,100.134L76.6726,99.9936L76.7945,99.8521L76.9156,99.7097L77.0359,99.5666L77.1553,99.4229L77.2738,99.2784L77.3915,99.1331L77.5083,98.9871L77.6243,98.8405L77.7394,98.6931L77.8536,98.545L77.967,98.3963L78.0794,98.2468L78.1911,98.0966L78.3018,97.9458L78.4116,97.7943L78.5205,97.6421L78.6286,97.4891L78.7357,97.3356L78.842,97.1813L78.9473,97.0265L79.0517,96.8709L79.1552,96.7147L79.2578,96.5578L79.3594,96.4003L79.4601,96.2422L79.5599,96.0834L79.6588,95.9239L79.7567,95.7638L79.8537,95.6032L79.9497,95.4418L80.0448,95.2799L80.1389,95.1173L80.2321,94.9541L80.3243,94.7904L80.4156,94.626L80.5058,94.461L80.5952,94.2954L80.6835,94.1292L80.7708,93.9625L80.8572,93.7951L80.9426,93.6271L81.0269,93.4586L81.1103,93.2895L81.1927,93.1198L81.2741,92.9496L81.3545,92.7788L81.4339,92.6075L81.5122,92.4355L81.5896,92.263L81.6659,92.0899L81.7412,91.9164L81.8155,91.7424L81.8887,91.5677L81.9609,91.3925L82.0321,91.2168L82.1022,91.0405L82.1713,90.8638L82.2393,90.6865L82.3063,90.5087L82.3722,90.3304L82.437,90.1516L82.5008,89.9722L82.5635,89.7924L82.6252,89.6121L82.6858,89.4313L82.7452,89.25L82.8036,89.0682L82.861,88.8859L82.9172,88.7031L82.9723,88.5199L83.0263,88.3362L83.0793,88.152L83.1311,87.9673L83.1818,87.7822L83.2314,87.5967L83.2799,87.4106L83.3272,87.2242L83.3735,87.0372L83.4186,86.8498L83.4626,86.662L83.5054,86.4738L83.5471,86.285L83.5877,86.0958L83.6271,85.9063L83.6653,85.7163L83.7024,85.5259L83.7384,85.3351L83.7732,85.1438L83.8068,84.9522L83.8392,84.76L83.8705,84.5675L83.9006,84.3747L83.9295,84.1814L83.9572,83.9877L83.9838,83.7936L84.0091,83.5991L84.0333,83.4042L84.0562,83.2089L84.0779,83.0133L84.0985,82.8173L84.1178,82.6209L84.1359,82.4241L84.1528,82.227L84.1684,82.0294L84.1829,81.8315L84.1961,81.6333L84.208,81.4347L84.2187,81.2358L84.2282,81.0365L84.2364,80.8368L84.2434,80.6368L84.2491,80.4364L84.2535,80.2357L84.2567,80.0347L84.2586,79.8333L84.2593,79.6317L84.2586,79.4303L84.2567,79.2293L84.2535,79.0286L84.2489,78.8282L84.2431,78.6282L84.2361,78.4285L84.2277,78.2291L84.2181,78.0301L84.2072,77.8313L84.1951,77.6329L84.1817,77.435L84.167,77.2373L84.1511,77.0399L84.134,76.843L84.1156,76.6463L84.0959,76.45L84.0751,76.2542L84.053,76.0586L84.0297,75.8634L84.0052,75.6686L83.9794,75.4741L83.9525,75.2801L83.9243,75.0864L83.895,74.8931L83.8644,74.7002L83.8327,74.5077L83.7997,74.3156L83.7656,74.1238L83.7302,73.9324L83.6937,73.7415L83.6561,73.551L83.6172,73.3608L83.5772,73.1711L83.536,72.9818L83.4937,72.7929L83.4502,72.6044L83.4055,72.4164L83.3597,72.2288L83.3127,72.0416L83.2647,71.8549L83.2154,71.6685L83.1651,71.4827L83.1136,71.2973L83.061,71.1123L83.0072,70.9277L82.9523,70.7437L82.8964,70.5601L82.8393,70.377L82.7811,70.1942L82.7218,70.0121L82.6614,69.8303L82.5999,69.649L82.5373,69.4683L82.4737,69.288L82.4089,69.1082L82.343,68.9288L82.2761,68.7501L82.2082,68.5718L82.1391,68.3939L82.069,68.2166L81.9978,68.0399L81.9256,67.8636L81.8522,67.6878L81.7779,67.5126L81.7025,67.3379L81.6261,67.1637L81.5486,66.99L81.4701,66.8169L81.3906,66.6444L81.31,66.4724L81.2284,66.3009L81.1458,66.1299L81.0622,65.9596L80.9775,65.7898L80.8919,65.6205L80.8053,65.4519L80.7176,65.2838L80.629,65.1163L80.5393,64.9493L80.4487,64.783L80.3571,64.6173L80.2645,64.452L80.1709,64.2875L80.0764,64.1235L79.9809,63.9601L79.8844,63.7974L79.787,63.6353L79.6886,63.4738L79.5892,63.3128L79.4889,63.1525L79.3877,62.9929L79.2855,62.8339L79.1824,62.6755L79.0783,62.5178L78.9733,62.3607L78.8674,62.2043L78.7606,62.0485L78.6528,61.8933L78.5442,61.7389L78.4346,61.5851L78.3241,61.432L78.2128,61.2795L78.1005,61.1278L77.9873,60.9767L77.8732,60.8262L77.7583,60.6766L77.6425,60.5276L77.5258,60.3792L77.4082,60.2317L77.2898,60.0847L77.1705,59.9386L77.0503,59.7931L76.9293,59.6483L76.8074,59.5043L76.6847,59.3611L76.5611,59.2185L76.4367,59.0767L76.3114,58.9356L76.1854,58.7952L76.0584,58.6556L75.9307,58.5168L75.8022,58.3787L75.6728,58.2415L75.5427,58.1049L75.4117,57.9691L75.2799,57.8341L75.1473,57.6999L75.0139,57.5665L74.8798,57.4338L74.7448,57.302L74.6091,57.1709L74.4726,57.0407L74.3353,56.9112L74.1972,56.7825L74.0584,56.6547L73.9189,56.5277L73.7785,56.4015L73.6374,56.2761L73.4956,56.1516L73.353,56.0278L73.2097,55.905L73.0657,55.7829L72.9209,55.6618L72.7754,55.5414L72.6291,55.4219L72.4822,55.3033L72.3345,55.1855L72.1861,55.0686L72.0371,54.9526L71.8873,54.8374L71.7368,54.7231L71.5856,54.6097L71.4338,54.4972L71.2812,54.3855L71.128,54.2748L70.9741,54.165L70.8195,54.056L70.6643,53.948L70.5084,53.8409L70.3518,53.7347L70.1946,53.6294L70.0368,53.525L69.8782,53.4215L69.7191,53.319L69.5593,53.2174L69.3989,53.1168L69.2378,53.0171L69.0761,52.9183L68.9138,52.8205L68.7509,52.7236L68.5874,52.6277L68.4232,52.5328L68.2585,52.4388L68.0931,52.3458L67.9272,52.2538L67.7607,52.1627L67.5935,52.0726L67.4259,51.9835L67.2576,51.8954L67.0887,51.8083L66.9193,51.7222L66.7493,51.637L66.5787,51.5529L66.4076,51.4698L66.2359,51.3877L66.0637,51.3066L65.8909,51.2265L65.7176,51.1475L65.5438,51.0695L65.3693,50.9924L65.1944,50.9165L65.019,50.8416L64.843,50.7677L64.6665,50.6948L64.4895,50.6231L64.312,50.5523L64.134,50.4826L63.9554,50.414L63.7764,50.3464L63.5969,50.28L63.4169,50.2145L63.2364,50.1502L63.0554,50.0869L62.8739,50.0247L62.692,49.9636L62.5096,49.9036L62.3267,49.8447L62.1433,49.7869L61.9595,49.7302L61.7753,49.6746L61.5906,49.6201L61.4054,49.5667L61.2198,49.5144L61.0337,49.4633L60.8472,49.4132L60.6603,49.3643L60.473,49.3166L60.2852,49.2699L60.0969,49.2244L59.9083,49.1801L59.7193,49.1368L59.5298,49.0948L59.3399,49.0539L59.1497,49.0141L58.959,48.9756L58.7678,48.9381L58.5764,48.9019L58.3845,48.8668L58.1923,48.8329L57.9996,48.8002L57.8066,48.7686L57.6132,48.7383L57.4194,48.7091L57.2252,48.6812L57.0307,48.6544L56.8358,48.6289L56.6406,48.6045L56.445,48.5814L56.249,48.5594L56.0527,48.5387L55.856,48.5193L55.659,48.501L55.4617,48.484L55.264,48.4682L55.0659,48.4537L54.8676,48.4404L54.6689,48.4283L54.4699,48.4175L54.2705,48.408L54.0709,48.3997L53.8709,48.3926L53.6706,48.3869L53.47,48.3824L53.2691,48.3792L53.0678,48.3773L52.8651,48.3766L52.7103,48.377L52.5544,48.3782L52.3985,48.3801L52.2426,48.3828L52.0867,48.3863L51.9308,48.3905L51.7749,48.3955L51.6191,48.4013L51.4633,48.4078L51.3075,48.4151L51.1518,48.4232L50.9961,48.432L50.8404,48.4416L50.6848,48.4519L50.5292,48.463L50.3737,48.4748L50.2182,48.4874L50.0628,48.5007L49.9074,48.5148L49.7521,48.5297L49.5969,48.5452L49.4417,48.5615L49.2866,48.5786L49.1316,48.5964L48.9766,48.6149L48.8217,48.6342L48.667,48.6542L48.5122,48.6749L48.3576,48.6964L48.2031,48.7186L48.0487,48.7415L47.8943,48.7652L47.7401,48.7895L47.586,48.8146L47.432,48.8404L47.2781,48.867L47.1243,48.8942L46.9706,48.9222L46.817,48.9509L46.6636,48.9803L46.5104,49.0104L46.3572,49.0412L46.2041,49.0727L46.0512,49.105L45.8985,49.1379L45.7459,49.1715L45.5934,49.2059L45.4411,49.2409L45.2889,49.2767L45.1369,49.3131L44.9851,49.3502L44.8334,49.388L44.6819,49.4265L44.5305,49.4657L44.3793,49.5056L44.2284,49.5462L44.0775,49.5874L43.9269,49.6294L43.7765,49.672L43.6262,49.7152L43.4761,49.7592L43.3263,49.8039L43.1766,49.8491L43.0272,49.8951L42.8779,49.9418L42.7288,49.9891L42.58,50.0371L42.4314,50.0857L42.283,50.135L42.1349,50.185L41.9869,50.2356L41.8392,50.2869L41.6917,50.3388L41.5444,50.3914L41.3975,50.4446L41.2507,50.4985L41.1042,50.553L40.9579,50.6081L40.8119,50.6639L40.6662,50.7204L40.5207,50.7775L40.3755,50.8352L40.2305,50.8935L40.0858,50.9525L39.9414,51.0121L39.7973,51.0724L39.6534,51.1332L39.5098,51.1947L39.3665,51.2568L39.2235,51.3196L39.0809,51.3829L38.9419,51.4453L38.6545,51.5767L38.3719,51.7089L38.0905,51.8435L37.8104,51.9805L37.5315,52.1199L37.2541,52.2617L36.9779,52.4059L36.7032,52.5524L36.43,52.7011L36.1581,52.8522L35.8877,53.0056L35.6189,53.1613L35.3515,53.3192L35.0857,53.4794L34.8215,53.6417L34.5589,53.8063L34.2979,53.973L34.0386,54.1419L33.7809,54.3129L33.525,54.4861L33.2708,54.6614L33.0184,54.8387L32.7646,55.0204L32.6431,55.1086L32.5189,55.1996L32.3952,55.2912L32.2719,55.3832L32.1492,55.4757L32.0269,55.5687L31.905,55.6622L31.7836,55.7562L31.6627,55.8507L31.5423,55.9457L31.4224,56.0412L31.3029,56.1372L31.184,56.2337L31.0656,56.3306L30.9476,56.4281L30.8302,56.526L30.7132,56.6243L30.5968,56.7232L30.4809,56.8225L30.3654,56.9223L30.2506,57.0226L30.1362,57.1233L30.0223,57.2245L29.909,57.3261L29.7962,57.4282L29.6839,57.5308L29.5722,57.6338L29.461,57.7373L29.3504,57.8412L29.2403,57.9455L29.1308,58.0503L29.0217,58.1555L28.9133,58.2612L28.8054,58.3673L28.6981,58.4738L28.5913,58.5808L28.4851,58.6882L28.3795,58.796L28.2744,58.9043L28.1699,59.0129L28.066,59.122L27.9627,59.2315L27.8599,59.3414L27.7578,59.4518L27.6563,59.5625L27.5553,59.6736L27.4548,59.7852L27.3551,59.8971L27.2559,60.0094L27.1573,60.1222L27.0594,60.2353L26.962,60.3488L26.8652,60.4627L26.7691,60.5771L26.6736,60.6917L26.5787,60.8068L26.4844,60.9222L26.3908,61.0381L26.2977,61.1543L26.2053,61.2709L26.1136,61.3878L26.0225,61.5051L25.932,61.6227L25.8422,61.7408L25.753,61.8592L25.6644,61.978L25.5766,62.097L25.4893,62.2165L25.4027,62.3363L25.3168,62.4565L25.2315,62.577L25.1469,62.6979L25.063,62.819L24.9798,62.9406L24.8971,63.0625L24.8152,63.1847L24.734,63.3073L24.6534,63.4301L24.5735,63.5533L24.4943,63.6769L24.4158,63.8007L24.338,63.9249L24.2609,64.0494L24.1844,64.1742L24.1087,64.2993L24.0337,64.4247L23.9593,64.5505L23.8857,64.6766L23.8127,64.8029L23.7405,64.9296L23.669,65.0566L23.5982,65.1838L23.5281,65.3114L23.4588,65.4393L23.3902,65.5674L23.3222,65.6959L23.255,65.8246L23.1886,65.9536L23.1228,66.083L23.0578,66.2126L22.9936,66.3424L22.93,66.4726L22.8672,66.603L22.8052,66.7337L22.7439,66.8647L22.6833,66.996L22.6235,67.1275L22.5644,67.2593L22.5061,67.3913L22.4486,67.5237L22.3918,67.6562L22.3357,67.7891L22.2804,67.9222L22.2259,68.0556L22.1722,68.1892L22.1192,68.3231L22.067,68.4572L22.012,68.6008L15.4746,66.0984L15.5366,65.9364L15.6031,65.7655L15.6706,65.5951L15.7389,65.4251L15.8082,65.2555L15.8785,65.0864L15.9497,64.9177L16.0218,64.7494L16.0948,64.5815L16.1687,64.4141L16.2435,64.2472L16.3192,64.0807L16.3958,63.9146L16.4734,63.749L16.5518,63.5838L16.6311,63.4191L16.7113,63.2548L16.7923,63.091L16.8743,62.9276L16.9571,62.7648L17.0408,62.6023L17.1253,62.4403L17.2107,62.2789L17.2969,62.1178L17.384,61.9572L17.472,61.7972L17.5608,61.6376L17.6504,61.4784L17.7408,61.3198L17.8321,61.1616L17.9242,61.004L18.0171,60.8468L18.1109,60.6901L18.2055,60.5338L18.3008,60.3781L18.397,60.2229L18.494,60.0681L18.5918,59.9139L18.6903,59.7602L18.7897,59.6069L18.8899,59.4541L18.9908,59.3019L19.0925,59.1502L19.1949,58.999L19.2982,58.8483L19.4022,58.6981L19.507,58.5484L19.6125,58.3992L19.7188,58.2506L19.8258,58.1025L19.9336,57.9548L20.0422,57.8077L20.1515,57.6612L20.2614,57.5152L20.3722,57.3697L20.4837,57.2247L20.5959,57.0802L20.7088,56.9363L20.8224,56.7929L20.9367,56.6501L21.0518,56.5078L21.1676,56.3661L21.284,56.2248L21.4012,56.0842L21.519,55.9441L21.6376,55.8045L21.7568,55.6655L21.8767,55.527L21.9973,55.3891L22.1186,55.2517L22.2406,55.1149L22.3632,54.9787L22.4865,54.843L22.6104,54.7078L22.735,54.5732L22.8603,54.4393L22.9862,54.3058L23.1128,54.173L23.24,54.0407L23.3678,53.9089L23.4963,53.7778L23.6254,53.6472L23.7552,53.5172L23.8856,53.3878L24.0166,53.259L24.1482,53.1307L24.2805,53.003L24.4133,52.876L24.5468,52.7495L24.6809,52.6236L24.8155,52.4982L24.9508,52.3735L25.0867,52.2494L25.2231,52.1259L25.3602,52.0029L25.4979,51.8806L25.6361,51.7588L25.7749,51.6377L25.9143,51.5172L26.0543,51.3973L26.1948,51.278L26.3359,51.1593L26.4775,51.0412L26.6197,50.9237L26.7625,50.8068L26.9059,50.6906L27.0497,50.575L27.1942,50.46L27.3391,50.3456L27.4846,50.2318L27.6307,50.1187L27.7772,50.0062L27.9244,49.8943L28.072,49.7831L28.2202,49.6725L28.3689,49.5625L28.5181,49.4532L28.6709,49.3422L28.9687,49.129L29.2717,48.9161L29.5767,48.7058L29.8836,48.4981L30.1925,48.2931L30.5033,48.0906L30.816,47.8909L31.1306,47.6937L31.447,47.4993L31.7652,47.3076L32.0853,47.1186L32.4071,46.9323L32.7306,46.7487L33.0558,46.5679L33.3828,46.3899L33.7114,46.2147L34.0416,46.0423L34.3735,45.8727L34.707,45.706L35.042,45.5421L35.3786,45.3811L35.7167,45.2229L36.0528,45.0693L36.2266,44.9912L36.3974,44.9154L36.5685,44.8404L36.7399,44.766L36.9117,44.6925L37.0838,44.6197L37.2563,44.5476L37.4292,44.4762L37.6023,44.4056L37.7758,44.3358L37.9497,44.2667L38.1239,44.1983L38.2985,44.1307L38.4733,44.0639L38.6485,43.9978L38.824,43.9325L38.9998,43.868L39.176,43.8042L39.3524,43.7412L39.5291,43.679L39.7062,43.6175L39.8836,43.5568L40.0612,43.4969L40.2392,43.4378L40.4175,43.3795L40.5961,43.3219L40.7749,43.2651L40.954,43.2092L41.1334,43.154L41.3131,43.0996L41.4931,43.046L41.6733,42.9932L41.8538,42.9412L42.0346,42.89L42.2156,42.8396L42.3969,42.79L42.5785,42.7412L42.7603,42.6933L42.9423,42.6461L43.1246,42.5998L43.3072,42.5543L43.4899,42.5096L43.673,42.4657L43.8562,42.4227L44.0397,42.3805L44.2235,42.3391L44.4074,42.2985L44.5916,42.2588L44.776,42.22L44.9606,42.1819L45.1454,42.1447L45.3305,42.1084L45.5157,42.0729L45.7011,42.0383L45.8867,42.0045L46.0726,41.9715L46.2586,41.9395L46.4449,41.9082L46.6313,41.8779L46.8179,41.8484L47.0046,41.8198L47.1916,41.792L47.3787,41.7652L47.566,41.7391L47.7535,41.714L47.9411,41.6898L48.1289,41.6664L48.3168,41.6439L48.505,41.6223L48.6932,41.6017L48.8816,41.5818L49.0702,41.5629L49.2588,41.5449L49.4477,41.5278L49.6367,41.5116L49.8258,41.4963L50.015,41.4819L50.2043,41.4684L50.3938,41.4558L50.5834,41.4442L50.7731,41.4334L50.9629,41.4236L51.1528,41.4147L51.3428,41.4067L51.533,41.3997L51.7232,41.3936L51.9135,41.3884L52.1038,41.3842L52.2943,41.3808L52.4849,41.3785L52.6756,41.3771L52.8675,41.3766L53.1125,41.3774L53.3585,41.3797L53.6041,41.3836L53.8493,41.3891L54.0943,41.3962L54.3389,41.4048L54.5831,41.4149L54.827,41.4266L55.0705,41.4398L55.3137,41.4546L55.5565,41.4708L55.7989,41.4886L56.041,41.508L56.2826,41.5288L56.5239,41.5512L56.7647,41.575L57.0052,41.6004L57.2452,41.6272L57.4848,41.6556L57.724,41.6854L57.9628,41.7167L58.2012,41.7495L58.4391,41.7838L58.6765,41.8195L58.9135,41.8567L59.1501,41.8953L59.3862,41.9354L59.6218,41.977L59.8569,42.02L60.0916,42.0644L60.3258,42.1103L60.5595,42.1575L60.7927,42.2063L61.0254,42.2564L61.2576,42.3079L61.4893,42.3609L61.7205,42.4153L61.9511,42.471L62.1813,42.5282L62.4109,42.5867L62.64,42.6466L62.8685,42.7079L63.0964,42.7706L63.3239,42.8347L63.5507,42.9001L63.777,42.9669L64.0028,43.035L64.2279,43.1045L64.4525,43.1753L64.6765,43.2475L64.8999,43.321L65.1227,43.3958L65.345,43.4719L65.5666,43.5494L65.7876,43.6282L66.008,43.7083L66.2278,43.7897L66.447,43.8724L66.6655,43.9564L66.8834,44.0417L67.1006,44.1282L67.3172,44.2161L67.5332,44.3052L67.7485,44.3956L67.9632,44.4873L68.1772,44.5802L68.3904,44.6744L68.6031,44.7698L68.8151,44.8665L69.0264,44.9645L69.2369,45.0636L69.4469,45.164L69.6561,45.2656L69.8646,45.3685L70.0724,45.4725L70.2795,45.5778L70.4858,45.6842L70.6915,45.7919L70.8964,45.9008L71.1006,46.0109L71.3041,46.1221L71.5068,46.2346L71.7087,46.3482L71.91,46.4629L72.1104,46.5789L72.3102,46.696L72.5091,46.8143L72.7073,46.9337L72.9046,47.0543L73.1013,47.1761L73.2972,47.2989L73.4922,47.4229L73.6864,47.5481L73.8799,47.6743L74.0726,47.8017L74.2644,47.9302L74.4555,48.0598L74.6457,48.1905L74.8351,48.3223L75.0237,48.4552L75.2115,48.5892L75.3984,48.7243L75.5844,48.8605L75.7697,48.9977L75.9541,49.1361L76.1376,49.2755L76.3203,49.4159L76.5021,49.5574L76.6831,49.7L76.8631,49.8436L77.0423,49.9883L77.2207,50.134L77.3981,50.2808L77.5746,50.4285L77.7503,50.5774L77.925,50.7272L78.0989,50.878L78.2718,51.0299L78.4438,51.1828L78.6149,51.3366L78.7851,51.4915L78.9544,51.6474L79.1227,51.8042L79.2901,51.962L79.4565,52.1209L79.622,52.2807L79.7866,52.4415L79.9502,52.6032L80.1128,52.7659L80.2745,52.9296L80.4352,53.0942L80.5949,53.2597L80.7536,53.4263L80.9114,53.5937L81.0682,53.7621L81.2239,53.9314L81.3787,54.1017L81.5325,54.2728L81.6852,54.4449L81.837,54.6179L81.9877,54.7918L82.1375,54.9667L82.2862,55.1424L82.4338,55.3189L82.5805,55.4964L82.726,55.6748L82.8706,55.8541L83.0141,56.0342L83.1565,56.2152L83.2978,56.3971L83.4382,56.5799L83.5774,56.7635L83.7155,56.9479L83.8526,57.1332L83.9887,57.3194L84.1235,57.5063L84.2574,57.6942L84.3901,57.8828L84.5217,58.0723L84.6522,58.2626L84.7816,58.4537L84.9099,58.6457L85.037,58.8384L85.163,59.0319L85.2879,59.2263L85.4117,59.4215L85.5343,59.6174L85.6557,59.8141L85.7761,60.0116L85.8952,60.2099L86.0132,60.4089L86.13,60.6087L86.2457,60.8093L86.3602,61.0107L86.4734,61.2127L86.5855,61.4155L86.6965,61.6192L86.8062,61.8235L86.9146,62.0285L87.022,62.2343L87.1281,62.4408L87.2329,62.648L87.3366,62.856L87.439,63.0647L87.5402,63.274L87.6401,63.484L87.7388,63.6948L87.8363,63.9063L87.9325,64.1184L88.0275,64.3312L88.1211,64.5447L88.2136,64.7588L88.3047,64.9737L88.3946,65.1892L88.4832,65.4054L88.5705,65.6222L88.6565,65.8396L88.7412,66.0577L88.8246,66.2765L88.9067,66.4959L88.9874,66.7159L89.0669,66.9364L89.145,67.1577L89.2219,67.3796L89.2973,67.602L89.3714,67.8251L89.4442,68.0488L89.5157,68.273L89.5858,68.4979L89.6545,68.7234L89.7219,68.9494L89.7878,69.1759L89.8524,69.403L89.9157,69.6308L89.9775,69.859L90.038,70.0879L90.0971,70.3173L90.1547,70.5472L90.211,70.7776L90.2658,71.0086L90.3193,71.2401L90.3713,71.4721L90.4219,71.7046L90.4711,71.9377L90.5188,72.1713L90.5651,72.4053L90.6099,72.6399L90.6533,72.8749L90.6952,73.1104L90.7357,73.3464L90.7747,73.5829L90.8122,73.8199L90.8483,74.0572L90.8829,74.295L90.916,74.5334L90.9476,74.7721L90.9777,75.0113L91.0063,75.2509L91.0334,75.4909L91.059,75.7315L91.0831,75.9723L91.1056,76.2136L91.1267,76.4553L91.1462,76.6974L91.1642,76.9399L91.1806,77.1828L91.1955,77.426L91.2088,77.6696L91.2206,77.9137L91.2309,78.158L91.2395,78.4028L91.2466,78.6479L91.2522,78.8933L91.2561,79.1391L91.2585,79.3851L91.2593,79.6315L91.2585,79.8776L91.2562,80.1233L91.2523,80.3687L91.2469,80.6137L91.2399,80.8584L91.2314,81.1027L91.2214,81.3466L91.2098,81.5901L91.1967,81.8333L91.1821,82.0761L91.1659,82.3185L91.1483,82.5606L91.1291,82.8021L91.1085,83.0433L91.0863,83.2841L91.0627,83.5245L91.0376,83.7645L91.0109,84.004L90.9828,84.2431L90.9533,84.4818L90.9222,84.72L90.8897,84.9578L90.8557,85.1951L90.8203,85.432L90.7834,85.6684L90.7451,85.9043L90.7053,86.1397L90.6641,86.3747L90.6215,86.6091L90.5774,86.8431L90.5319,87.0766L90.485,87.3096L90.4367,87.5421L90.3869,87.7741L90.3358,88.0055L90.2832,88.2364L90.2293,88.4669L90.174,88.6967L90.1172,88.926L90.0591,89.1549L89.9996,89.383L89.9388,89.6107L89.8766,89.8379L89.813,90.0644L89.7481,90.2904L89.6818,90.5157L89.6141,90.7406L89.5451,90.9649L89.4748,91.1885L89.4032,91.4116L89.3302,91.6341L89.2559,91.8559L89.1802,92.0771L89.1033,92.2978L89.025,92.5178L88.9455,92.7372L88.8646,92.9559L88.7824,93.1741L88.699,93.3916L88.6143,93.6084L88.5282,93.8246L88.4409,94.0401L88.3524,94.255L88.2626,94.4692L88.1715,94.6827L88.0791,94.8957L87.9855,95.1078L87.8907,95.3193L87.7946,95.5301L87.6972,95.7403L87.5987,95.9497L87.4989,96.1584L87.3979,96.3664L87.2956,96.5737L87.1922,96.7804L87.0875,96.9862L86.9817,97.1913L86.8746,97.3958L86.7663,97.5995L86.6569,97.8024L86.5462,98.0046L86.4344,98.206L86.3214,98.4067L86.2073,98.6067L86.092,98.8058L85.9754,99.0043L85.8578,99.2019L85.739,99.3988L85.619,99.5948L85.498,99.7901L85.3757,99.9846L85.2524,100.178L85.1279,100.371L85.0022,100.563L84.8755,100.755L84.7477,100.945L84.6187,101.135L84.4886,101.324L84.3575,101.512L84.2252,101.699L84.0918,101.885L83.9574,102.071L83.8219,102.255L83.6853,102.439L83.5476,102.622L83.4088,102.804L83.269,102.985L83.1282,103.166L82.9862,103.345L82.8433,103.524L82.6993,103.702L82.5542,103.878L82.4081,104.054L82.261,104.229L82.1128,104.404L81.9636,104.577L81.8134,104.749L81.6622,104.921L81.51,105.091L81.3568,105.261L81.2026,105.429L81.0474,105.597L80.8911,105.764L80.7339,105.93L80.5758,106.095L80.4167,106.259L80.2565,106.422L80.0954,106.584L79.9334,106.745L79.7704,106.905L79.6064,107.064L79.4415,107.222L79.2757,107.379L79.1089,107.536L78.9411,107.691L78.7724,107.845L78.6029,107.998L78.4323,108.151L78.2609,108.302L78.0885,108.452L77.9153,108.601L77.7411,108.749L77.5661,108.896L77.3901,109.042L77.2133,109.188L77.0355,109.332L76.857,109.475L76.6774,109.616L76.4971,109.757L76.3159,109.897L76.1338,110.036L75.9508,110.174L75.767,110.31L75.5823,110.446L75.3968,110.58L75.2105,110.714L75.0233,110.846L74.8353,110.977L74.6465,111.107L74.4568,111.236L74.2663,111.364L74.0751,111.491L73.883,111.616L73.69,111.741L73.4963,111.864L73.3018,111.986L73.1065,112.107L72.9105,112.227L72.7136,112.346L72.516,112.464L72.3176,112.58L72.1184,112.696L71.9184,112.81L71.7177,112.923L71.5163,113.035L71.3141,113.145L71.1112,113.255L70.9075,113.363L70.703,113.47L70.4979,113.576L70.2921,113.68L70.0854,113.784L69.8781,113.886L69.6701,113.987L69.4614,114.087L69.252,114.186L69.0418,114.283L68.831,114.379L68.6195,114.474L68.4074,114.567L68.1944,114.66L67.9809,114.751L67.7667,114.841L67.5518,114.929L67.3363,115.017L67.1201,115.103L66.9033,115.187L66.6858,115.271L66.4676,115.353L66.2489,115.434L66.0295,115.513L65.8095,115.592L65.5888,115.669L65.3676,115.744L65.1458,115.818L64.9233,115.891L64.7002,115.963L64.4766,116.033L64.2523,116.102L64.0274,116.17L63.8021,116.236L63.5761,116.301L63.3495,116.365L63.1224,116.427L62.8948,116.488L62.6666,116.547L62.4377,116.606L62.2084,116.662L61.9786,116.718L61.7481,116.772L61.5172,116.824L61.2858,116.875L61.0538,116.925L60.8213,116.973L60.5883,117.02L60.3549,117.066L60.1209,117.11L59.8863,117.152L59.6514,117.194L59.416,117.233L59.18,117.272L58.9437,117.309L58.7069,117.344L58.4695,117.378L58.2316,117.411L57.9934,117.442L57.7549,117.471L57.5157,117.499L57.2761,117.526L57.0363,117.551L56.7959,117.575L56.5551,117.597L56.3138,117.617L56.0722,117.637L55.8302,117.654L55.5878,117.67L55.3451,117.685L55.1018,117.698L54.8582,117.71L54.6143,117.72L54.37,117.728L54.1254,117.735L53.8805,117.741L53.6351,117.745L53.3893,117.747L53.1437,117.748Z" style="fill:rgb(0,174,239);"/>
        <rect x="15.2433" y="13.3948" width="7" height="55.18" style="fill:rgb(22,118,188);"/>
        <path d="M197.132,117.747L196.887,117.746L196.642,117.744L196.396,117.74L196.151,117.734L195.906,117.727L195.661,117.719L195.417,117.709L195.173,117.697L194.929,117.684L194.686,117.669L194.444,117.653L194.201,117.635L193.959,117.615L193.717,117.595L193.476,117.572L193.235,117.548L192.995,117.523L192.755,117.496L192.515,117.468L192.276,117.438L192.037,117.407L191.799,117.374L191.561,117.34L191.323,117.304L191.086,117.267L190.85,117.228L190.614,117.188L190.378,117.146L190.143,117.103L189.908,117.059L189.674,117.013L189.441,116.966L189.207,116.917L188.975,116.867L188.742,116.815L188.511,116.763L188.28,116.708L188.049,116.652L187.819,116.595L187.589,116.537L187.36,116.477L187.132,116.415L186.904,116.353L186.676,116.289L186.449,116.223L186.223,116.157L185.997,116.088L185.772,116.019L185.547,115.948L185.323,115.876L185.1,115.802L184.877,115.728L184.655,115.651L184.433,115.574L184.212,115.495L183.992,115.415L183.772,115.334L183.553,115.251L183.335,115.167L183.117,115.082L182.899,114.995L182.683,114.907L182.467,114.818L182.251,114.728L182.037,114.636L181.823,114.543L181.61,114.449L181.397,114.354L181.185,114.257L180.974,114.159L180.763,114.06L180.553,113.959L180.344,113.858L180.135,113.755L179.928,113.651L179.721,113.546L179.514,113.439L179.309,113.331L179.104,113.223L178.899,113.113L178.696,113.001L178.493,112.889L178.291,112.775L178.09,112.66L177.89,112.544L177.69,112.427L177.491,112.309L177.293,112.19L177.095,112.069L176.899,111.947L176.703,111.824L176.508,111.7L176.314,111.575L176.12,111.449L175.927,111.322L175.736,111.193L175.544,111.064L175.354,110.933L175.165,110.801L174.976,110.668L174.789,110.534L174.602,110.399L174.416,110.263L174.23,110.126L174.046,109.987L173.862,109.848L173.68,109.707L173.498,109.566L173.317,109.423L173.137,109.28L172.958,109.135L172.779,108.989L172.602,108.843L172.425,108.695L172.25,108.546L172.075,108.396L171.901,108.245L171.728,108.093L171.556,107.941L171.385,107.787L171.215,107.632L171.046,107.476L170.877,107.319L170.71,107.161L170.543,107.002L170.378,106.843L170.213,106.682L170.05,106.52L169.887,106.357L169.726,106.194L169.565,106.029L169.405,105.864L169.246,105.697L169.089,105.53L168.932,105.361L168.776,105.192L168.621,105.022L168.468,104.851L168.315,104.678L168.163,104.506L168.012,104.332L167.862,104.157L167.714,103.981L167.566,103.804L167.42,103.627L167.274,103.449L167.129,103.269L166.986,103.089L166.843,102.908L166.702,102.726L166.562,102.544L166.423,102.36L166.284,102.175L166.147,101.99L166.011,101.804L165.876,101.617L165.743,101.429L165.61,101.241L165.478,101.051L165.348,100.861L165.218,100.67L165.09,100.478L164.963,100.285L164.837,100.091L164.712,99.897L164.588,99.7019L164.466,99.5061L164.344,99.3094L164.224,99.1118L164.105,98.9135L163.987,98.7145L163.87,98.5147L163.754,98.3141L163.64,98.1128L163.527,97.9107L163.414,97.7079L163.304,97.5043L163.194,97.2999L163.085,97.0949L162.978,96.8891L162.872,96.6826L162.767,96.4754L162.663,96.2675L162.561,96.0587L162.46,95.8494L162.36,95.6393L162.261,95.4287L162.164,95.2171L162.067,95.005L161.973,94.7922L161.879,94.5787L161.786,94.3646L161.695,94.1497L161.605,93.9342L161.517,93.7181L161.43,93.5012L161.344,93.2837L161.259,93.0657L161.175,92.847L161.093,92.6275L161.013,92.4075L160.933,92.187L160.855,91.9657L160.778,91.7438L160.703,91.5213L160.629,91.2983L160.556,91.0747L160.484,90.8504L160.414,90.6255L160.346,90.4001L160.278,90.174L160.212,89.9475L160.148,89.7204L160.084,89.4926L160.022,89.2643L159.962,89.0355L159.903,88.8061L159.845,88.5762L159.789,88.3457L159.734,88.1149L159.681,87.8834L159.629,87.6513L159.578,87.4188L159.529,87.1856L159.481,86.9521L159.435,86.7182L159.39,86.4835L159.347,86.2485L159.305,86.013L159.264,85.777L159.225,85.5406L159.188,85.3035L159.152,85.0661L159.117,84.8283L159.084,84.59L159.052,84.3514L159.022,84.1121L158.994,83.8724L158.967,83.6325L158.941,83.392L158.917,83.151L158.894,82.9099L158.873,82.6681L158.854,82.4259L158.836,82.1836L158.819,81.9406L158.805,81.6974L158.791,81.4538L158.779,81.2097L158.769,80.9653L158.76,80.7206L158.753,80.4755L158.748,80.2302L158.744,79.9844L158.741,79.7383L158.741,79.4919L158.741,79.2458L158.744,79.0001L158.748,78.7546L158.753,78.5097L158.76,78.2651L158.769,78.0208L158.779,77.7768L158.79,77.5332L158.803,77.2901L158.818,77.0473L158.834,76.8049L158.852,76.5629L158.871,76.3212L158.892,76.0801L158.914,75.8393L158.937,75.5989L158.962,75.3589L158.989,75.1194L159.017,74.8803L159.047,74.6415L159.078,74.4034L159.11,74.1656L159.144,73.9283L159.18,73.6915L159.217,73.4551L159.255,73.2192L159.295,72.9837L159.336,72.7487L159.379,72.5142L159.423,72.2803L159.468,72.0468L159.515,71.8138L159.563,71.5813L159.613,71.3494L159.664,71.1179L159.717,70.8869L159.771,70.6565L159.826,70.4267L159.883,70.1974L159.941,69.9686L160,69.7404L160.061,69.5126L160.123,69.2856L160.187,69.059L160.252,68.833L160.318,68.6076L160.386,68.3827L160.455,68.1585L160.525,67.9349L160.597,67.7118L160.67,67.4894L160.744,67.2675L160.82,67.0463L160.897,66.8256L160.975,66.6056L161.055,66.3862L161.135,66.1674L161.218,65.9493L161.301,65.7318L161.386,65.515L161.472,65.2989L161.559,65.0833L161.648,64.8684L161.737,64.6542L161.829,64.4407L161.921,64.2278L162.014,64.0156L162.109,63.8041L162.205,63.5933L162.303,63.3831L162.401,63.1737L162.501,62.9651L162.602,62.7569L162.704,62.5496L162.808,62.3431L162.912,62.1372L163.018,61.9321L163.125,61.7276L163.234,61.5239L163.343,61.321L163.454,61.1188L163.566,60.9174L163.679,60.7166L163.793,60.5167L163.908,60.3176L164.025,60.1191L164.142,59.9215L164.261,59.7247L164.381,59.5286L164.502,59.3333L164.624,59.1388L164.748,58.9451L164.872,58.7522L164.998,58.56L165.125,58.3687L165.252,58.1783L165.381,57.9886L165.511,57.7998L165.643,57.6118L165.775,57.4246L165.908,57.2382L166.043,57.0527L166.178,56.8682L166.315,56.6843L166.452,56.5013L166.591,56.3192L166.731,56.138L166.872,55.9577L167.014,55.7781L167.157,55.5996L167.301,55.4218L167.446,55.245L167.592,55.069L167.739,54.894L167.887,54.7199L168.036,54.5465L168.187,54.3742L168.338,54.2028L168.49,54.0323L168.643,53.8627L168.797,53.694L168.953,53.5263L169.109,53.3595L169.266,53.1936L169.424,53.0287L169.583,52.8647L169.744,52.7017L169.905,52.5397L170.067,52.3786L170.23,52.2185L170.394,52.0593L170.559,51.9011L170.724,51.7439L170.891,51.5877L171.059,51.4325L171.228,51.2783L171.397,51.125L171.568,50.9728L171.739,50.8217L171.911,50.6715L172.085,50.5223L172.259,50.3741L172.434,50.227L172.61,50.0809L172.787,49.9359L172.964,49.7918L173.143,49.6488L173.323,49.507L173.503,49.3661L173.684,49.2263L173.866,49.0875L174.049,48.9498L174.233,48.8133L174.418,48.6777L174.603,48.5432L174.789,48.4099L174.977,48.2777L175.165,48.1465L175.354,48.0164L175.543,47.8874L175.734,47.7596L175.925,47.6329L176.117,47.5072L176.31,47.3827L176.504,47.2594L176.698,47.1372L176.893,47.0161L177.09,46.8961L177.286,46.7773L177.484,46.6596L177.682,46.5431L177.882,46.4278L178.082,46.3137L178.282,46.2007L178.484,46.0889L178.686,45.9782L178.889,45.8688L179.093,45.7605L179.297,45.6535L179.502,45.5476L179.708,45.4429L179.915,45.3395L180.122,45.2373L180.33,45.1362L180.539,45.0364L180.748,44.9379L180.958,44.8405L181.169,44.7444L181.38,44.6496L181.593,44.556L181.806,44.4636L182.019,44.3725L182.233,44.2827L182.448,44.1942L182.664,44.1069L182.88,44.0208L183.097,43.9361L183.314,43.8527L183.532,43.7705L183.751,43.6896L183.971,43.6101L184.191,43.5318L184.411,43.4549L184.632,43.3792L184.854,43.3049L185.077,43.232L185.3,43.1603L185.523,43.09L185.748,43.021L185.972,42.9533L186.198,42.887L186.424,42.8221L186.65,42.7585L186.878,42.6963L187.105,42.6354L187.333,42.576L187.562,42.5179L187.792,42.4611L188.021,42.4058L188.252,42.3519L188.483,42.2993L188.714,42.2482L188.946,42.1984L189.179,42.1501L189.412,42.1032L189.645,42.0577L189.879,42.0136L190.114,41.971L190.349,41.9298L190.584,41.89L190.82,41.8517L191.056,41.8148L191.293,41.7794L191.531,41.7454L191.768,41.7129L192.007,41.6818L192.245,41.6523L192.484,41.6242L192.724,41.5975L192.964,41.5724L193.204,41.5488L193.445,41.5266L193.686,41.506L193.928,41.4868L194.17,41.4692L194.412,41.453L194.655,41.4384L194.898,41.4253L195.142,41.4137L195.386,41.4037L195.63,41.3952L195.875,41.3882L196.12,41.3828L196.365,41.3789L196.611,41.3766L196.856,41.3758L197.086,41.3765L197.315,41.3785L197.543,41.3819L197.771,41.3866L197.999,41.3926L198.227,41.4L198.454,41.4087L198.681,41.4188L198.908,41.4301L199.134,41.4428L199.36,41.4568L199.586,41.4721L199.811,41.4888L200.036,41.5067L200.261,41.5259L200.485,41.5465L200.709,41.5683L200.932,41.5914L201.156,41.6158L201.378,41.6415L201.601,41.6685L201.823,41.6968L202.045,41.7263L202.266,41.7571L202.487,41.7891L202.707,41.8225L202.927,41.8571L203.147,41.8929L203.366,41.93L203.585,41.9683L203.803,42.0079L204.021,42.0487L204.239,42.0908L204.456,42.134L204.673,42.1786L204.889,42.2243L205.105,42.2713L205.32,42.3194L205.535,42.3688L205.749,42.4194L205.963,42.4712L206.177,42.5242L206.39,42.5784L206.602,42.6338L206.814,42.6904L207.026,42.7482L207.237,42.8071L207.447,42.8673L207.657,42.9286L207.867,42.9911L208.076,43.0547L208.285,43.1195L208.493,43.1855L208.7,43.2526L208.907,43.3209L209.114,43.3903L209.32,43.4609L209.525,43.5326L209.73,43.6054L209.934,43.6794L210.138,43.7545L210.341,43.8307L210.544,43.9081L210.746,43.9866L210.948,44.0661L211.149,44.1468L211.349,44.2286L211.549,44.3115L211.749,44.3955L211.947,44.4806L212.145,44.5668L212.343,44.654L212.54,44.7423L212.736,44.8318L212.932,44.9223L213.127,45.0138L213.322,45.1065L213.516,45.2001L213.709,45.2949L213.902,45.3907L214.094,45.4875L214.285,45.5854L214.476,45.6844L214.666,45.7844L214.856,45.8854L215.045,45.9875L215.233,46.0905L215.421,46.1946L215.607,46.2997L215.794,46.4059L215.979,46.5131L216.164,46.6212L216.349,46.7304L216.532,46.8405L216.715,46.9517L216.897,47.0638L217.079,47.177L217.26,47.2911L217.44,47.4062L217.62,47.5223L217.799,47.6394L217.977,47.7574L218.154,47.8764L218.331,47.9964L218.507,48.1174L218.682,48.2393L218.857,48.3621L219.03,48.4858L219.204,48.6105L219.376,48.7363L219.548,48.8629L219.719,48.9904L219.889,49.1188L220.058,49.2482L220.227,49.3786L220.395,49.5098L220.562,49.6419L220.728,49.775L220.894,49.9089L221.059,50.0438L221.223,50.1796L221.386,50.3163L221.549,50.4538L221.71,50.5922L221.871,50.7316L222.032,50.8718L222.191,51.0129L222.35,51.1548L222.507,51.2976L222.664,51.4414L222.821,51.5859L222.976,51.7313L223.13,51.8776L223.284,52.0247L223.437,52.1727L223.589,52.3216L223.74,52.4711L223.891,52.6216L224.04,52.773L224.189,52.9251L224.337,53.0781L224.484,53.2319L224.63,53.3866L224.776,53.542L224.92,53.6982L225.064,53.8553L225.207,54.0132L225.348,54.1718L225.489,54.3313L225.63,54.4915L225.769,54.6525L225.907,54.8144L226.045,54.977L226.181,55.1404L226.317,55.3045L226.452,55.4695L226.586,55.6352L226.719,55.8017L226.851,55.9688L226.982,56.1368L227.112,56.3056L227.241,56.475L227.37,56.6452L227.497,56.8163L227.624,56.988L227.749,57.1603L227.874,57.3335L227.998,57.5075L228.12,57.682L228.242,57.8574L228.363,58.0334L228.483,58.2103L228.602,58.3878L228.72,58.5659L228.837,58.7447L228.953,58.9243L229.068,59.1046L229.182,59.2856L229.295,59.4673L229.407,59.6496L229.518,59.8326L229.628,60.0163L229.737,60.2007L229.845,60.3857L229.952,60.5714L230.058,60.7577L230.163,60.9447L230.267,61.1325L230.37,61.3207L230.472,61.5096L230.573,61.6994L230.673,61.8897L230.772,62.0804L230.87,62.2719L230.966,62.4639L231.062,62.6567L231.157,62.8503L231.251,63.0442L231.343,63.2387L231.434,63.4338L231.525,63.6296L231.614,63.8262L231.703,64.0233L231.79,64.2208L231.876,64.4189L231.961,64.6179L232.045,64.8171L232.127,65.0169L232.209,65.2174L232.29,65.4186L232.369,65.6204L232.448,65.8224L232.525,66.0252L232.601,66.2286L232.676,66.4323L232.75,66.6368L232.822,66.8415L232.894,67.0471L232.965,67.2533L233.034,67.4596L233.102,67.6667L233.169,67.8744L233.235,68.0826L233.3,68.2911L233.363,68.5002L233.426,68.7098L233.487,68.9198L233.547,69.1306L233.606,69.3418L233.663,69.5533L233.72,69.7655L233.775,69.9779L233.829,70.1909L233.882,70.4046L233.934,70.6187L233.984,70.8329L234.034,71.0478L234.082,71.2633L234.129,71.4793L234.174,71.6953L234.219,71.912L234.262,72.1293L234.304,72.3467L234.344,72.5648L234.384,72.7832L234.422,73.002L234.459,73.2213L234.495,73.4413L234.529,73.6613L234.562,73.8815L234.594,74.1025L234.625,74.3238L234.654,74.5455L234.683,74.7677L234.709,74.99L234.734,75.2024L227.78,76.0012L227.757,75.8088L227.736,75.627L227.713,75.4458L227.689,75.2648L227.664,75.0842L227.637,74.904L227.61,74.7238L227.582,74.5441L227.553,74.3652L227.523,74.1864L227.492,74.0078L227.46,73.8296L227.426,73.6518L227.392,73.4742L227.357,73.2973L227.321,73.1205L227.283,72.944L227.245,72.7681L227.206,72.5927L227.166,72.4175L227.125,72.2424L227.083,72.0681L227.04,71.8942L226.995,71.7205L226.95,71.5471L226.904,71.3743L226.857,71.2017L226.809,71.0297L226.76,70.8582L226.711,70.6868L226.66,70.5159L226.608,70.3455L226.555,70.1753L226.501,70.0058L226.447,69.8367L226.391,69.668L226.335,69.4995L226.277,69.3317L226.219,69.1643L226.16,68.9971L226.1,68.8305L226.038,68.6643L225.976,68.4987L225.913,68.3334L225.849,68.1685L225.785,68.0042L225.719,67.8404L225.652,67.6769L225.585,67.5138L225.516,67.3512L225.447,67.1893L225.377,67.0277L225.306,66.8664L225.234,66.7059L225.161,66.5459L225.087,66.3862L225.013,66.2269L224.937,66.068L224.861,65.9098L224.784,65.7522L224.706,65.5951L224.627,65.4382L224.547,65.282L224.466,65.1261L224.385,64.9709L224.303,64.8165L224.219,64.6623L224.135,64.5085L224.05,64.3554L223.965,64.2028L223.878,64.0507L223.791,63.8991L223.703,63.7481L223.614,63.5976L223.524,63.4477L223.433,63.2983L223.341,63.1494L223.249,63.0011L223.156,62.8534L223.062,62.7062L222.967,62.5596L222.872,62.4134L222.776,62.2679L222.678,62.123L222.581,61.9787L222.482,61.8349L222.382,61.6917L222.282,61.549L222.181,61.407L222.079,61.2656L221.977,61.1246L221.873,60.9844L221.769,60.8448L221.664,60.7057L221.559,60.5671L221.452,60.4293L221.345,60.2921L221.237,60.1554L221.129,60.0194L221.019,59.884L220.909,59.7492L220.798,59.615L220.687,59.4816L220.574,59.3487L220.461,59.2164L220.347,59.0848L220.233,58.9538L220.117,58.8235L220.002,58.6938L219.885,58.5648L219.767,58.4364L219.649,58.3087L219.531,58.1816L219.411,58.0553L219.291,57.9296L219.17,57.8045L219.048,57.6801L218.926,57.5565L218.803,57.4335L218.679,57.3111L218.555,57.1895L218.43,57.0686L218.305,56.9482L218.178,56.8287L218.051,56.7099L217.924,56.5917L217.795,56.4743L217.666,56.3575L217.537,56.2415L217.406,56.1262L217.276,56.0116L217.144,55.8977L217.012,55.7846L216.879,55.6721L216.745,55.5605L216.611,55.4495L216.477,55.3393L216.341,55.2299L216.205,55.1211L216.069,55.0131L215.932,54.9059L215.794,54.7995L215.655,54.6937L215.516,54.5888L215.377,54.4845L215.236,54.3811L215.096,54.2785L214.954,54.1766L214.812,54.0755L214.67,53.9751L214.526,53.8756L214.383,53.7768L214.239,53.6789L214.094,53.5817L213.948,53.4853L213.802,53.3897L213.656,53.2949L213.508,53.2009L213.361,53.1077L213.212,53.0154L213.064,52.9238L212.914,52.833L212.764,52.7431L212.614,52.654L212.463,52.5657L212.311,52.4783L212.159,52.3917L212.007,52.3059L211.854,52.2209L211.7,52.1368L211.546,52.0535L211.391,51.9711L211.236,51.8895L211.081,51.8088L210.924,51.729L210.768,51.6499L210.61,51.5718L210.453,51.4945L210.295,51.4181L210.136,51.3425L209.977,51.2679L209.817,51.1941L209.657,51.1212L209.496,51.0491L209.335,50.9779L209.174,50.9077L209.012,50.8383L208.849,50.7699L208.686,50.7023L208.523,50.6356L208.359,50.5698L208.195,50.5049L208.03,50.441L207.865,50.3779L207.699,50.3158L207.533,50.2546L207.366,50.1943L207.199,50.1349L207.032,50.0765L206.864,50.019L206.696,49.9624L206.527,49.9067L206.358,49.852L206.188,49.7982L206.018,49.7454L205.848,49.6936L205.677,49.6426L205.506,49.5927L205.334,49.5437L205.162,49.4956L204.99,49.4485L204.817,49.4024L204.644,49.3572L204.47,49.313L204.296,49.2698L204.122,49.2276L203.947,49.1864L203.772,49.1461L203.596,49.1068L203.42,49.0685L203.244,49.0312L203.067,48.9949L202.89,48.9596L202.713,48.9253L202.535,48.892L202.357,48.8598L202.178,48.8285L201.999,48.7982L201.82,48.769L201.641,48.7408L201.461,48.7136L201.28,48.6874L201.1,48.6623L200.919,48.6382L200.738,48.6151L200.556,48.5931L200.374,48.5721L200.192,48.5522L200.009,48.5333L199.826,48.5154L199.643,48.4986L199.459,48.4829L199.275,48.4683L199.091,48.4547L198.907,48.4421L198.722,48.4307L198.537,48.4203L198.351,48.411L198.165,48.4028L197.979,48.3956L197.793,48.3896L197.606,48.3846L197.419,48.3808L197.232,48.378L197.045,48.3764L196.857,48.3758L196.655,48.3765L196.454,48.3784L196.253,48.3816L196.052,48.386L195.852,48.3917L195.652,48.3987L195.452,48.4069L195.253,48.4164L195.054,48.4271L194.855,48.439L194.657,48.4522L194.459,48.4667L194.261,48.4823L194.064,48.4992L193.867,48.5173L193.671,48.5366L193.475,48.5572L193.279,48.5789L193.084,48.6018L192.889,48.626L192.695,48.6513L192.501,48.6779L192.307,48.7056L192.114,48.7345L191.921,48.7646L191.728,48.7959L191.536,48.8283L191.345,48.8619L191.153,48.8967L190.962,48.9327L190.772,48.9698L190.582,49.008L190.392,49.0474L190.203,49.088L190.015,49.1297L189.826,49.1725L189.638,49.2165L189.451,49.2616L189.264,49.3079L189.078,49.3552L188.892,49.4037L188.706,49.4533L188.521,49.504L188.336,49.5558L188.152,49.6088L187.968,49.6628L187.785,49.7179L187.602,49.7742L187.42,49.8315L187.238,49.8899L187.057,49.9494L186.876,50.0099L186.696,50.0716L186.516,50.1343L186.337,50.1981L186.158,50.2629L185.98,50.3288L185.802,50.3958L185.625,50.4638L185.448,50.5329L185.271,50.603L185.096,50.6742L184.921,50.7464L184.746,50.8196L184.572,50.8939L184.398,50.9692L184.225,51.0455L184.053,51.1229L183.881,51.2012L183.71,51.2806L183.539,51.361L183.368,51.4424L183.199,51.5247L183.03,51.6081L182.861,51.6926L182.693,51.7779L182.526,51.8643L182.359,51.9516L182.193,52.04L182.027,52.1293L181.862,52.2195L181.698,52.3108L181.534,52.403L181.371,52.4962L181.208,52.5903L181.046,52.6854L180.885,52.7814L180.724,52.8784L180.564,52.9763L180.405,53.0752L180.246,53.175L180.088,53.2757L179.93,53.3773L179.774,53.4799L179.617,53.5834L179.462,53.6879L179.307,53.7932L179.153,53.8994L178.999,54.0065L178.846,54.1145L178.694,54.2235L178.542,54.3333L178.392,54.444L178.241,54.5556L178.092,54.6681L177.943,54.7815L177.795,54.8957L177.648,55.0108L177.501,55.1268L177.355,55.2436L177.21,55.3613L177.065,55.4798L176.922,55.5993L176.779,55.7195L176.636,55.8405L176.495,55.9625L176.354,56.0852L176.214,56.2088L176.074,56.3332L175.936,56.4584L175.798,56.5845L175.661,56.7114L175.524,56.839L175.389,56.9675L175.254,57.0968L175.12,57.2269L174.987,57.3577L174.854,57.4894L174.723,57.6219L174.592,57.7552L174.462,57.8892L174.332,58.0239L174.204,58.1595L174.076,58.2959L173.949,58.4329L173.823,58.5708L173.698,58.7094L173.574,58.8488L173.45,58.989L173.327,59.1298L173.205,59.2713L173.084,59.4137L172.964,59.5568L172.845,59.7006L172.726,59.845L172.609,59.9903L172.492,60.1363L172.376,60.2829L172.261,60.4303L172.146,60.5784L172.033,60.7271L171.921,60.8766L171.809,61.0267L171.698,61.1777L171.588,61.3292L171.479,61.4813L171.371,61.6342L171.264,61.7878L171.158,61.942L171.053,62.0969L170.948,62.2525L170.845,62.4088L170.742,62.5655L170.641,62.7231L170.54,62.8813L170.44,63.04L170.341,63.1995L170.243,63.3595L170.146,63.5203L170.05,63.6816L169.955,63.8435L169.861,64.0061L169.768,64.1693L169.676,64.333L169.584,64.4974L169.494,64.6624L169.405,64.8281L169.317,64.9942L169.229,65.1609L169.143,65.3283L169.057,65.4962L168.973,65.6648L168.89,65.8339L168.807,66.0035L168.726,66.1738L168.645,66.3446L168.566,66.516L168.488,66.6879L168.41,66.8603L168.334,67.0334L168.259,67.207L168.185,67.3811L168.111,67.5558L168.039,67.7309L167.968,67.9066L167.898,68.0829L167.829,68.2596L167.761,68.4369L167.694,68.6147L167.628,68.793L167.563,68.9718L167.499,69.1512L167.436,69.3309L167.375,69.5113L167.314,69.6921L167.255,69.8734L167.196,70.0552L167.139,70.2375L167.083,70.4203L167.028,70.6035L166.974,70.7872L166.921,70.9714L166.869,71.156L166.818,71.3412L166.769,71.5267L166.72,71.7128L166.673,71.8992L166.627,72.0862L166.581,72.2737L166.537,72.4615L166.495,72.6496L166.453,72.8383L166.412,73.0275L166.373,73.2171L166.335,73.407L166.298,73.5975L166.262,73.7884L166.227,73.9797L166.193,74.1712L166.161,74.3633L166.13,74.5558L166.099,74.7488L166.071,74.942L166.043,75.1357L166.016,75.3298L165.991,75.5244L165.967,75.7192L165.944,75.9144L165.922,76.1101L165.902,76.3061L165.882,76.5025L165.864,76.6992L165.847,76.8965L165.832,77.0939L165.817,77.2919L165.804,77.4901L165.792,77.6886L165.781,77.8877L165.772,78.087L165.764,78.2866L165.757,78.4866L165.751,78.687L165.746,78.8877L165.743,79.0887L165.741,79.2901L165.741,79.4917L165.741,79.6931L165.743,79.8941L165.747,80.0948L165.751,80.2952L165.757,80.4953L165.764,80.6949L165.772,80.8943L165.782,81.0933L165.793,81.292L165.805,81.4904L165.818,81.6884L165.833,81.8862L165.849,82.0835L165.866,82.2804L165.884,82.4772L165.904,82.6733L165.925,82.8692L165.947,83.0649L165.97,83.26L165.995,83.4547L166.021,83.6493L166.048,83.8433L166.076,84.0371L166.105,84.2303L166.136,84.4232L166.167,84.6157L166.2,84.8079L166.234,84.9996L166.27,85.191L166.306,85.3818L166.344,85.5725L166.383,85.7627L166.423,85.9523L166.464,86.1416L166.506,86.3304L166.55,86.5189L166.595,86.7071L166.64,86.8946L166.687,87.0818L166.735,87.2686L166.785,87.4549L166.835,87.6407L166.886,87.8261L166.939,88.0111L166.993,88.1957L167.048,88.3797L167.104,88.5633L167.161,88.7464L167.219,88.929L167.278,89.1113L167.339,89.2931L167.4,89.4744L167.463,89.6551L167.526,89.8353L167.591,90.0152L167.657,90.1945L167.724,90.3733L167.792,90.5516L167.861,90.7295L167.931,90.9067L168.002,91.0835L168.074,91.2598L168.148,91.4356L168.222,91.6108L168.297,91.7855L168.374,91.9597L168.451,92.1334L168.53,92.3065L168.609,92.479L168.69,92.6511L168.772,92.8225L168.854,92.9935L168.938,93.1638L169.022,93.3336L169.108,93.5029L169.195,93.6715L169.282,93.8396L169.371,94.0071L169.461,94.1741L169.551,94.3404L169.643,94.5062L169.736,94.6713L169.829,94.8359L169.924,94.9999L170.019,95.1632L170.116,95.326L170.213,95.4882L170.311,95.6496L170.411,95.8105L170.511,95.9709L170.612,96.1306L170.714,96.2895L170.818,96.4479L170.922,96.6056L171.027,96.7626L171.133,96.9191L171.239,97.075L171.347,97.23L171.456,97.3844L171.565,97.5383L171.676,97.6915L171.787,97.8439L171.9,97.9956L172.013,98.1467L172.127,98.2971L172.242,98.4468L172.358,98.5959L172.474,98.7441L172.592,98.8917L172.71,99.0386L172.83,99.1849L172.95,99.3303L173.071,99.475L173.193,99.6191L173.315,99.7623L173.439,99.9049L173.563,100.047L173.689,100.188L173.815,100.328L173.942,100.468L174.069,100.607L174.198,100.745L174.327,100.882L174.457,101.019L174.588,101.154L174.72,101.289L174.853,101.423L174.986,101.557L175.12,101.69L175.255,101.821L175.391,101.952L175.527,102.083L175.665,102.212L175.803,102.341L175.942,102.469L176.081,102.596L176.222,102.722L176.363,102.847L176.504,102.972L176.647,103.096L176.79,103.218L176.934,103.34L177.079,103.462L177.225,103.582L177.371,103.701L177.518,103.82L177.665,103.938L177.814,104.055L177.963,104.171L178.113,104.286L178.263,104.4L178.414,104.514L178.566,104.626L178.719,104.738L178.872,104.849L179.026,104.958L179.18,105.067L179.336,105.175L179.492,105.283L179.648,105.389L179.805,105.494L179.963,105.598L180.122,105.702L180.281,105.804L180.441,105.906L180.601,106.007L180.762,106.106L180.924,106.205L181.086,106.303L181.249,106.4L181.413,106.496L181.577,106.591L181.742,106.685L181.907,106.778L182.073,106.87L182.239,106.961L182.406,107.051L182.574,107.14L182.742,107.228L182.911,107.315L183.081,107.401L183.251,107.486L183.421,107.571L183.592,107.654L183.764,107.736L183.936,107.817L184.109,107.897L184.282,107.976L184.456,108.054L184.631,108.131L184.806,108.207L184.981,108.282L185.157,108.356L185.334,108.429L185.511,108.5L185.688,108.571L185.866,108.641L186.045,108.709L186.224,108.777L186.403,108.843L186.583,108.909L186.764,108.973L186.945,109.036L187.126,109.099L187.308,109.16L187.49,109.22L187.673,109.279L187.857,109.337L188.04,109.393L188.225,109.449L188.409,109.503L188.595,109.557L188.78,109.609L188.966,109.66L189.153,109.71L189.34,109.759L189.527,109.807L189.715,109.853L189.903,109.899L190.092,109.943L190.281,109.987L190.47,110.029L190.66,110.07L190.85,110.109L191.041,110.148L191.232,110.185L191.424,110.222L191.616,110.257L191.808,110.291L192,110.323L192.193,110.355L192.387,110.385L192.581,110.414L192.775,110.442L192.969,110.469L193.164,110.495L193.359,110.519L193.555,110.542L193.751,110.564L193.947,110.585L194.144,110.604L194.341,110.622L194.538,110.639L194.736,110.655L194.934,110.67L195.132,110.683L195.331,110.695L195.53,110.706L195.73,110.715L195.929,110.724L196.129,110.731L196.329,110.737L196.53,110.741L196.731,110.744L196.932,110.746L197.135,110.747L197.29,110.746L197.446,110.745L197.601,110.743L197.758,110.741L197.913,110.737L198.069,110.733L198.225,110.728L198.381,110.722L198.537,110.716L198.693,110.708L198.848,110.7L199.004,110.691L199.16,110.682L199.315,110.671L199.471,110.66L199.626,110.649L199.782,110.636L199.937,110.623L200.093,110.609L200.248,110.594L200.403,110.578L200.558,110.562L200.713,110.545L200.868,110.527L201.023,110.508L201.178,110.489L201.333,110.469L201.488,110.448L201.642,110.427L201.797,110.405L201.951,110.382L202.106,110.358L202.26,110.334L202.414,110.309L202.568,110.283L202.722,110.256L202.876,110.229L203.029,110.201L203.183,110.173L203.336,110.143L203.49,110.113L203.643,110.082L203.796,110.051L203.949,110.018L204.102,109.985L204.254,109.952L204.407,109.918L204.559,109.882L204.711,109.847L204.863,109.81L205.015,109.773L205.167,109.735L205.318,109.697L205.469,109.658L205.621,109.618L205.772,109.577L205.922,109.536L206.073,109.494L206.224,109.451L206.374,109.408L206.524,109.364L206.674,109.32L206.823,109.274L206.973,109.228L207.122,109.182L207.271,109.134L207.42,109.086L207.569,109.038L207.717,108.988L207.865,108.938L208.013,108.888L208.161,108.837L208.308,108.785L208.456,108.732L208.603,108.679L208.749,108.625L208.896,108.57L209.042,108.515L209.188,108.459L209.334,108.403L209.479,108.346L209.625,108.288L209.77,108.23L209.914,108.171L210.059,108.111L210.203,108.051L210.347,107.99L210.49,107.929L210.633,107.867L210.776,107.804L210.919,107.74L211.058,107.678L211.345,107.547L211.628,107.415L211.91,107.28L212.19,107.143L212.468,107.003L212.746,106.862L213.022,106.718L213.297,106.571L213.57,106.422L213.842,106.271L214.112,106.118L214.381,105.962L214.649,105.804L214.914,105.644L215.179,105.482L215.441,105.317L215.702,105.15L215.961,104.982L216.219,104.81L216.475,104.637L216.729,104.462L216.982,104.285L217.235,104.103L217.357,104.015L217.481,103.924L217.605,103.832L217.728,103.74L217.851,103.648L217.973,103.555L218.095,103.461L218.216,103.367L218.337,103.273L218.458,103.178L218.578,103.082L218.697,102.986L218.816,102.89L218.934,102.793L219.052,102.695L219.17,102.597L219.287,102.499L219.403,102.4L219.519,102.301L219.635,102.201L219.75,102.101L219.864,102L219.978,101.899L220.091,101.797L220.204,101.695L220.316,101.593L220.428,101.49L220.539,101.386L220.65,101.282L220.76,101.178L220.869,101.073L220.978,100.968L221.087,100.862L221.195,100.756L221.302,100.65L221.409,100.543L221.515,100.435L221.621,100.327L221.726,100.219L221.83,100.111L221.934,100.001L222.037,99.8919L222.14,99.782L222.242,99.6716L222.344,99.5608L222.445,99.4498L222.545,99.3383L222.645,99.2263L222.744,99.114L222.843,99.0012L222.941,98.8881L223.038,98.7746L223.135,98.6607L223.231,98.5464L223.326,98.4317L223.421,98.3166L223.516,98.2011L223.609,98.0854L223.702,97.9692L223.795,97.8525L223.886,97.7356L223.978,97.6183L224.068,97.5006L224.158,97.3826L224.247,97.2642L224.336,97.1455L224.423,97.0263L224.511,96.9069L224.597,96.7872L224.683,96.6668L224.769,96.5463L224.853,96.4256L224.937,96.3044L225.02,96.1828L225.103,96.0609L225.185,95.9386L225.266,95.8161L225.347,95.6934L225.426,95.5702L225.506,95.4465L225.584,95.3227L225.662,95.1985L225.739,95.074L225.816,94.9491L225.891,94.824L225.966,94.6988L226.041,94.5728L226.114,94.4467L226.187,94.3206L226.259,94.194L226.331,94.0668L226.402,93.9394L226.472,93.8119L226.541,93.6841L226.61,93.5561L226.678,93.4277L226.745,93.2988L226.811,93.1698L226.877,93.0405L226.942,92.9108L227.007,92.7808L227.07,92.6507L227.133,92.5206L227.195,92.3898L227.256,92.2587L227.317,92.1275L227.377,91.9958L227.436,91.8639L227.494,91.732L227.551,91.5998L227.608,91.4672L227.664,91.3343L227.72,91.2012L227.774,91.0679L227.828,90.9343L227.881,90.8002L227.933,90.666L227.988,90.5224L234.525,93.0252L234.463,93.1873L234.397,93.358L234.329,93.5282L234.261,93.6982L234.192,93.8679L234.122,94.037L234.05,94.2057L233.978,94.3739L233.905,94.5419L233.831,94.7094L233.756,94.8763L233.681,95.0426L233.604,95.2088L233.527,95.3743L233.448,95.5394L233.369,95.7044L233.289,95.8688L233.208,96.0324L233.126,96.1957L233.043,96.3586L232.959,96.5211L232.875,96.6829L232.789,96.8444L232.703,97.0056L232.616,97.1662L232.528,97.3264L232.439,97.4859L232.35,97.6448L232.259,97.8035L232.168,97.9619L232.076,98.1195L231.983,98.2765L231.889,98.4334L231.794,98.5897L231.699,98.7453L231.603,98.9005L231.506,99.0553L231.408,99.2095L231.31,99.3632L231.21,99.5164L231.11,99.6693L231.009,99.8216L230.908,99.9732L230.805,100.124L230.702,100.275L230.598,100.425L230.493,100.575L230.387,100.724L230.281,100.873L230.174,101.021L230.066,101.169L229.958,101.316L229.849,101.462L229.739,101.608L229.628,101.754L229.516,101.899L229.404,102.043L229.291,102.187L229.178,102.33L229.063,102.473L228.948,102.616L228.832,102.757L228.716,102.899L228.599,103.039L228.481,103.179L228.362,103.319L228.243,103.458L228.123,103.596L228.003,103.734L227.881,103.872L227.759,104.008L227.637,104.145L227.513,104.281L227.39,104.416L227.265,104.55L227.14,104.684L227.014,104.818L226.887,104.95L226.76,105.083L226.632,105.214L226.504,105.346L226.375,105.476L226.245,105.606L226.114,105.736L225.983,105.864L225.852,105.993L225.719,106.12L225.587,106.247L225.453,106.374L225.319,106.5L225.184,106.625L225.049,106.75L224.913,106.874L224.777,106.998L224.64,107.12L224.502,107.243L224.364,107.365L224.225,107.486L224.086,107.606L223.946,107.726L223.805,107.845L223.664,107.964L223.522,108.082L223.38,108.2L223.237,108.317L223.094,108.433L222.95,108.548L222.806,108.663L222.661,108.778L222.515,108.892L222.369,109.005L222.223,109.117L222.076,109.229L221.928,109.34L221.78,109.451L221.631,109.561L221.482,109.67L221.329,109.781L221.031,109.994L220.728,110.207L220.423,110.418L220.116,110.625L219.807,110.83L219.497,111.033L219.184,111.233L218.869,111.43L218.553,111.624L218.235,111.816L217.915,112.005L217.593,112.191L217.269,112.375L216.944,112.555L216.617,112.733L216.289,112.909L215.958,113.081L215.627,113.251L215.293,113.417L214.958,113.581L214.621,113.742L214.283,113.9L213.947,114.054L213.773,114.132L213.603,114.208L213.432,114.283L213.26,114.357L213.088,114.431L212.916,114.504L212.744,114.576L212.571,114.647L212.398,114.718L212.224,114.788L212.05,114.857L211.876,114.925L211.702,114.993L211.527,115.059L211.352,115.126L211.176,115.191L211,115.255L210.824,115.319L210.648,115.382L210.471,115.444L210.294,115.506L210.116,115.567L209.939,115.626L209.761,115.686L209.583,115.744L209.404,115.801L209.225,115.858L209.046,115.914L208.867,115.969L208.687,116.024L208.507,116.077L208.327,116.13L208.146,116.182L207.965,116.233L207.784,116.284L207.603,116.333L207.422,116.382L207.24,116.43L207.058,116.477L206.875,116.524L206.693,116.569L206.51,116.614L206.327,116.658L206.144,116.701L205.96,116.743L205.777,116.784L205.593,116.825L205.408,116.865L205.224,116.903L205.039,116.941L204.855,116.979L204.67,117.015L204.484,117.05L204.299,117.085L204.113,117.119L203.927,117.152L203.741,117.184L203.555,117.215L203.369,117.246L203.182,117.275L202.995,117.304L202.808,117.331L202.621,117.358L202.434,117.384L202.246,117.409L202.059,117.434L201.871,117.457L201.683,117.479L201.495,117.501L201.307,117.522L201.118,117.542L200.93,117.56L200.741,117.578L200.552,117.596L200.363,117.612L200.174,117.627L199.985,117.642L199.796,117.655L199.606,117.668L199.417,117.679L199.227,117.69L199.037,117.7L198.847,117.709L198.657,117.717L198.467,117.724L198.277,117.73L198.086,117.735L197.896,117.739L197.706,117.743L197.515,117.745L197.324,117.746L197.132,117.747Z" style="fill:rgb(0,174,239);"/>
        <rect x="227.719" y="90.5602" width="7" height="26.045" style="fill:rgb(22,118,188);"/>
    </g>
</svg>
